<svg xmlns="http://www.w3.org/2000/svg" xmlns:xlink="http://www.w3.org/1999/xlink" version="1.1" style="enable-background:new 0 0 304 182;" xml:space="preserve" width="400" height="400"><rect id="backgroundrect" width="100%" height="100%" x="0" y="0" fill="none" stroke="none" class="" style=""/>
<style type="text/css">
	.st0{fill:#b6b6b6;}
	.st1{fill-rule:evenodd;clip-rule:evenodd;fill:#FF9900;}
</style>

<g class="currentLayer" style=""><title>Layer 1</title>
	
	
<g class="selected"><path class="st0" d="M134.39652099609376,176.12993469238282 c0,3.7 0.4,6.7 1.1,8.9 c0.8,2.2 1.8,4.6 3.2,7.2 c0.5,0.8 0.7000000000000002,1.6 0.7000000000000002,2.3 c0,1 -0.6000000000000002,2 -1.9,3 l-6.3,4.2 c-0.9,0.6000000000000002 -1.8,0.9 -2.6,0.9 c-1,0 -2,-0.5 -3,-1.4 C124.19652099609375,199.7299346923828 122.99652099609375,198.12993469238282 121.99652099609375,196.52993469238282 c-1,-1.7000000000000002 -2,-3.6 -3.1,-5.9 c-7.8,9.2 -17.6,13.8 -29.4,13.8 c-8.4,0 -15.1,-2.4 -20,-7.2 c-4.9,-4.8 -7.4,-11.2 -7.4,-19.2 c0,-8.5 3,-15.4 9.1,-20.6 c6.1,-5.2 14.2,-7.8 24.5,-7.8 c3.4,0 6.9,0.3000000000000001 10.6,0.8 c3.7,0.5 7.5,1.3 11.5,2.2 v-7.3 c0,-7.6 -1.6,-12.9 -4.7,-16 c-3.2,-3.1 -8.6,-4.6 -16.3,-4.6 c-3.5,0 -7.1,0.4 -10.8,1.3 c-3.7,0.9 -7.3,2 -10.8,3.4 c-1.6,0.7000000000000002 -2.8,1.1 -3.5,1.3 c-0.7000000000000002,0.2 -1.2,0.3000000000000001 -1.6,0.3000000000000001 c-1.4,0 -2.1,-1 -2.1,-3.1 v-4.9 c0,-1.6 0.2,-2.8 0.7000000000000002,-3.5 c0.5,-0.7000000000000002 1.4,-1.4 2.8,-2.1 c3.5,-1.8 7.7,-3.3 12.6,-4.5 c4.9,-1.3 10.1,-1.9 15.6,-1.9 c11.9,0 20.6,2.7 26.2,8.1 c5.5,5.4 8.3,13.6 8.3,24.6 V176.12993469238282 zM93.79652099609375,191.3299346923828 c3.3,0 6.7,-0.6000000000000002 10.3,-1.8 c3.6,-1.2 6.8,-3.4 9.5,-6.4 c1.6,-1.9 2.8,-4 3.4,-6.4 c0.6000000000000002,-2.4 1,-5.3 1,-8.7 v-4.2 c-2.9,-0.7000000000000002 -6,-1.3 -9.2,-1.7000000000000002 c-3.2,-0.4 -6.3,-0.6000000000000002 -9.4,-0.6000000000000002 c-6.7,0 -11.6,1.3 -14.9,4 c-3.3,2.7 -4.9,6.5 -4.9,11.5 c0,4.7 1.2,8.2 3.7,10.6 C85.69652099609375,190.12993469238282 89.19652099609375,191.3299346923828 93.79652099609375,191.3299346923828 zM174.09652099609374,202.12993469238282 c-1.8,0 -3,-0.3000000000000001 -3.8,-1 c-0.8,-0.6000000000000002 -1.5,-2 -2.1,-3.9 L144.69652099609374,119.92993469238282 c-0.6000000000000002,-2 -0.9,-3.3 -0.9,-4 c0,-1.6 0.8,-2.5 2.4,-2.5 h9.8 c1.9,0 3.2,0.3000000000000001 3.9,1 c0.8,0.6000000000000002 1.4,2 2,3.9 l16.8,66.2 l15.6,-66.2 c0.5,-2 1.1,-3.3 1.9,-3.9 c0.8,-0.6000000000000002 2.2,-1 4,-1 h8 c1.9,0 3.2,0.3000000000000001 4,1 c0.8,0.6000000000000002 1.5,2 1.9,3.9 l15.8,67 l17.3,-67 c0.6000000000000002,-2 1.3,-3.3 2,-3.9 c0.8,-0.6000000000000002 2.1,-1 3.9,-1 h9.3 c1.6,0 2.5,0.8 2.5,2.5 c0,0.5 -0.1,1 -0.2,1.6 c-0.1,0.6000000000000002 -0.3000000000000001,1.4 -0.7000000000000002,2.5 l-24.1,77.3 c-0.6000000000000002,2 -1.3,3.3 -2.1,3.9 c-0.8,0.6000000000000002 -2.1,1 -3.8,1 h-8.6 c-1.9,0 -3.2,-0.3000000000000001 -4,-1 c-0.8,-0.7000000000000002 -1.5,-2 -1.9,-4 L203.99652099609375,132.7299346923828 l-15.4,64.4 c-0.5,2 -1.1,3.3 -1.9,4 c-0.8,0.7000000000000002 -2.2,1 -4,1 H174.09652099609374 zM302.5965209960938,204.8299346923828 c-5.2,0 -10.4,-0.6000000000000002 -15.4,-1.8 c-5,-1.2 -8.9,-2.5 -11.5,-4 c-1.6,-0.9 -2.7,-1.9 -3.1,-2.8 c-0.4,-0.9 -0.6000000000000002,-1.9 -0.6000000000000002,-2.8 v-5.1 c0,-2.1 0.8,-3.1 2.3,-3.1 c0.6000000000000002,0 1.2,0.1 1.8,0.3000000000000001 c0.6000000000000002,0.2 1.5,0.6000000000000002 2.5,1 c3.4,1.5 7.1,2.7 11,3.5 c4,0.8 7.9,1.2 11.9,1.2 c6.3,0 11.2,-1.1 14.6,-3.3 c3.4,-2.2 5.2,-5.4 5.2,-9.5 c0,-2.8 -0.9,-5.1 -2.7,-7 c-1.8,-1.9 -5.2,-3.6 -10.1,-5.2 L293.99652099609375,161.7299346923828 c-7.3,-2.3 -12.7,-5.7 -16,-10.2 c-3.3,-4.4 -5,-9.3 -5,-14.5 c0,-4.2 0.9,-7.9 2.7,-11.1 c1.8,-3.2 4.2,-6 7.2,-8.2 c3,-2.3 6.4,-4 10.4,-5.2 c4,-1.2 8.2,-1.7000000000000002 12.6,-1.7000000000000002 c2.2,0 4.5,0.1 6.7,0.4 c2.3,0.3000000000000001 4.4,0.7000000000000002 6.5,1.1 c2,0.5 3.9,1 5.7,1.6 c1.8,0.6000000000000002 3.2,1.2 4.2,1.8 c1.4,0.8 2.4,1.6 3,2.5 c0.6000000000000002,0.8 0.9,1.9 0.9,3.3 v4.7 c0,2.1 -0.8,3.2 -2.3,3.2 c-0.8,0 -2.1,-0.4 -3.8,-1.2 c-5.7,-2.6 -12.1,-3.9 -19.2,-3.9 c-5.7,0 -10.2,0.9 -13.3,2.8 c-3.1,1.9 -4.7,4.8 -4.7,8.9 c0,2.8 1,5.2 3,7.1 c2,1.9 5.7,3.8 11,5.5 l14.2,4.5 c7.2,2.3 12.4,5.5 15.5,9.6 c3.1,4.1 4.6,8.8 4.6,14 c0,4.3 -0.9,8.2 -2.6,11.6 c-1.8,3.4 -4.2,6.4 -7.3,8.8 c-3.1,2.5 -6.8,4.3 -11.1,5.6 C312.3965209960937,204.12993469238282 307.69652099609374,204.8299346923828 302.5965209960938,204.8299346923828 z" id="svg_2"/><g id="svg_3" class="">
		<path class="st1" d="M321.49652099609375,251.97008068561553 c-32.9,24.3 -80.7,37.2 -121.8,37.2 c-57.6,0 -109.5,-21.3 -148.7,-56.7 c-3.1,-2.8 -0.30000000000000016,-6.6 3.4,-4.4 c42.4,24.6 94.7,39.5 148.8,39.5 c36.5,0 76.6,-7.6 113.5,-23.2 C322.19652099609374,241.87008068561553 326.8965209960937,247.97008068561553 321.49652099609375,251.97008068561553 z" id="svg_4"/>
		<path class="st1" d="M335.19652099609374,236.37008068561553 c-4.2,-5.4 -27.8,-2.6 -38.5,-1.3 c-3.2,0.4 -3.7,-2.4 -0.8,-4.5 c18.8,-13.2 49.7,-9.4 53.3,-5 c3.6,4.5 -1,35.4 -18.6,50.2 c-2.7,2.3 -5.3,1.1 -4.1,-1.9 C330.49652099609375,263.9700806856155 339.3965209960937,241.67008068561555 335.19652099609374,236.37008068561553 z" id="svg_5"/>
	</g></g></g></svg>