<svg xmlns="http://www.w3.org/2000/svg" xmlns:xlink="http://www.w3.org/1999/xlink" version="1.1" style="" xml:space="preserve" width="208.7883214575067" height="184.11678820938334"><rect id="backgroundrect" width="100%" height="100%" x="0" y="0" fill="none" stroke="none" class="" style=""/>
<style type="text/css">
	.st0{fill:#2DBCAF;}
	.st1{fill:#5DC9E1;}
	.st2{fill:#FDDD00;}
	.st3{fill:#CE3262;}
	.st4{fill:#00ACD7;}
	.st5{fill:#FFFFFF;}
</style>

<g class="currentLayer" style=""><title>Layer 1</title><g id="svg_1" class="">
	<g id="svg_2">
		<g id="svg_3">
			<g id="svg_4">
				<path class="st4" d="M16.959853243827823,76.51900253295898 c-0.4,0 -0.5,-0.2 -0.3000000000000001,-0.5 l2.1,-2.7 c0.2,-0.3000000000000001 0.7000000000000002,-0.5 1.1,-0.5 l35.7,0 c0.4,0 0.5,0.3000000000000001 0.3000000000000001,0.6000000000000002 l-1.7000000000000002,2.6 c-0.2,0.3000000000000001 -0.7000000000000002,0.6000000000000002 -1,0.6000000000000002 L16.959853243827823,76.51900253295898 z" id="svg_5"/>
			</g>
		</g>
	</g>
	<g id="svg_6">
		<g id="svg_7">
			<g id="svg_8">
				<path class="st4" d="M1.8598532438278212,85.71900253295898 c-0.4,0 -0.5,-0.2 -0.3000000000000001,-0.5 l2.1,-2.7 c0.2,-0.3000000000000001 0.7000000000000002,-0.5 1.1,-0.5 l45.6,0 c0.4,0 0.6000000000000002,0.3000000000000001 0.5,0.6000000000000002 l-0.8,2.4 c-0.1,0.4 -0.5,0.6000000000000002 -0.9,0.6000000000000002 L1.8598532438278212,85.71900253295898 z" id="svg_9"/>
			</g>
		</g>
	</g>
	<g id="svg_10">
		<g id="svg_11">
			<g id="svg_12">
				<path class="st4" d="M26.059853243827817,94.91900253295898 c-0.4,0 -0.5,-0.3000000000000001 -0.3000000000000001,-0.6000000000000002 l1.4,-2.5 c0.2,-0.3000000000000001 0.6000000000000002,-0.6000000000000002 1,-0.6000000000000002 l20,0 c0.4,0 0.6000000000000002,0.3000000000000001 0.6000000000000002,0.7000000000000002 l-0.2,2.4 c0,0.4 -0.4,0.7000000000000002 -0.7000000000000002,0.7000000000000002 L26.059853243827817,94.91900253295898 z" id="svg_13"/>
			</g>
		</g>
	</g>
	<g id="svg_14">
		<g id="CXHf1q_3_">
			<g id="svg_15">
				<g id="svg_16">
					<path class="st4" d="M129.8598532438278,74.71900253295898 c-6.3,1.6 -10.6,2.8 -16.8,4.4 c-1.5,0.4 -1.6,0.5 -2.9,-1 c-1.5,-1.7000000000000002 -2.6,-2.8 -4.7,-3.8 c-6.3,-3.1 -12.4,-2.2 -18.1,1.5 c-6.8,4.4 -10.3,10.9 -10.2,19 c0.1,8 5.6,14.6 13.5,15.7 c6.8,0.9 12.5,-1.5 17,-6.6 c0.9,-1.1 1.7000000000000002,-2.3 2.7,-3.7 c-3.6,0 -8.1,0 -19.3,0 c-2.1,0 -2.6,-1.3 -1.9,-3 c1.3,-3.1 3.7,-8.3 5.1,-10.9 c0.3000000000000001,-0.6000000000000002 1,-1.6 2.5,-1.6 c5.1,0 23.9,0 36.4,0 c-0.2,2.7 -0.2,5.4 -0.6000000000000002,8.1 c-1.1,7.2 -3.8,13.8 -8.2,19.6 c-7.2,9.5 -16.6,15.4 -28.5,17 c-9.8,1.3 -18.9,-0.6000000000000002 -26.9,-6.6 c-7.4,-5.6 -11.6,-13 -12.7,-22.2 c-1.3,-10.9 1.9,-20.7 8.5,-29.3 c7.1,-9.3 16.5,-15.2 28,-17.3 c9.4,-1.7000000000000002 18.4,-0.6000000000000002 26.5,4.9 c5.3,3.5 9.1,8.3 11.6,14.1 C131.4598532438278,73.91900253295898 131.05985324382783,74.41900253295898 129.8598532438278,74.71900253295898 z" id="svg_17"/>
				</g>
				<g id="svg_18">
					<path class="st4" d="M162.9598532438278,130.01900253295898 c-9.1,-0.2 -17.4,-2.8 -24.4,-8.8 c-5.9,-5.1 -9.6,-11.6 -10.8,-19.3 c-1.8,-11.3 1.3,-21.3 8.1,-30.2 c7.3,-9.6 16.1,-14.6 28,-16.7 c10.2,-1.8 19.8,-0.8 28.5,5.1 c7.9,5.4 12.8,12.7 14.1,22.3 c1.7000000000000002,13.5 -2.2,24.5 -11.5,33.9 c-6.6,6.7 -14.7,10.9 -24,12.8 C168.25985324382782,129.61900253295897 165.55985324382783,129.719002532959 162.9598532438278,130.01900253295898 zM186.75985324382782,89.61900253295899 c-0.1,-1.3 -0.1,-2.3 -0.3000000000000001,-3.3 c-1.8,-9.9 -10.9,-15.5 -20.4,-13.3 c-9.3,2.1 -15.3,8 -17.5,17.4 c-1.8,7.8 2,15.7 9.2,18.9 c5.5,2.4 11,2.1 16.3,-0.6000000000000002 C181.9598532438278,104.61900253295897 186.25985324382782,98.21900253295898 186.75985324382782,89.61900253295899 z" id="svg_19"/>
				</g>
			</g>
		</g>
	</g>
</g></g></svg>