<svg xmlns="http://www.w3.org/2000/svg" xmlns:xlink="http://www.w3.org/1999/xlink" version="1.1" width="282.8571472167969" height="504.28570556640625" style="" xml:space="preserve"><rect id="backgroundrect" width="100%" height="100%" x="0" y="0" fill="none" stroke="none" class="" style=""/>



























<g class="currentLayer" style=""><title>Layer 1</title><path style="" d="M91.25242829895019,291.324 c0,0 -14.178,8.245 10.09,11.035 c29.4,3.354 44.426,2.873 76.825,-3.259 c0,0 8.518,5.341 20.414,9.967 C125.95142829895019,340.195 34.205428298950196,307.264 91.25242829895019,291.324 " id="svg_2" class="" fill-opacity="1" fill="#b6b6b6"/><path style="" d="M82.37742829895019,250.704 c0,0 -15.902,11.771 8.384,14.283 c31.406,3.24 56.208,3.505 99.125,-4.759 c0,0 5.936,6.018 15.27,9.309 C117.34242829895018,295.215 19.533428298950195,271.562 82.37742829895019,250.704 " id="svg_3" class="" fill-opacity="1" fill="#b6b6b6"/><path style="fill:#F8981D;" d="M157.1964282989502,181.799 c17.896,20.604 -4.702,39.145 -4.702,39.145 s45.441,-23.458 24.572,-52.833 c-19.491,-27.394 -34.438,-41.005 46.479,-87.934 C223.54542829895018,80.177 96.5324282989502,111.899 157.1964282989502,181.799 " id="svg_4" class=""/><path style="" d="M253.25542829895022,321.369 c0,0 10.492,8.645 -11.555,15.333 c-41.923,12.7 -174.488,16.535 -211.314,0.506 c-13.238,-5.759 11.587,-13.751 19.396,-15.428 c8.144,-1.766 12.798,-1.437 12.798,-1.437 c-14.722,-10.371 -95.157,20.364 -40.857,29.166 C169.80742829895019,373.524 291.6664282989502,338.695 253.25542829895022,321.369 " id="svg_5" class="" fill-opacity="1" fill="#b6b6b6"/><path style="" d="M98.07042829895019,208.617 c0,0 -67.431,16.016 -23.879,21.832 c18.389,2.462 55.047,1.905 89.193,-0.9560000000000001 c27.906,-2.354 55.927,-7.359 55.927,-7.359 s-9.84,4.214 -16.959,9.075 c-68.475,18.009 -200.756,9.631 -162.674,-8.79 C71.8844282989502,206.851 98.07042829895019,208.617 98.07042829895019,208.617 " id="svg_6" class="" fill-opacity="1" fill="#b6b6b6"/><path style="" d="M219.03342829895018,276.231 c69.608,-36.171 37.424,-70.931 14.96,-66.248 c-5.506,1.146 -7.961,2.1390000000000002 -7.961,2.1390000000000002 s2.044,-3.202 5.948,-4.588 c44.441,-15.624 78.619,46.081 -14.346,70.52 C217.63442829895018,278.055 218.71142829895018,277.092 219.03342829895018,276.231 " id="svg_7" class="" fill-opacity="1" fill="#b6b6b6"/><path style="fill:#F8981D;" d="M177.0664282989502,4.399 c0,0 38.55,38.563 -36.563,97.862 c-60.233,47.568 -13.735,74.69 -0.025000000000000005,105.678 c-35.159,-31.722 -60.961,-59.647 -43.651,-85.637 C122.2344282989502,84.151 192.6204282989502,65.654 177.0664282989502,4.399 " id="svg_8" class=""/><path style="" d="M104.9104282989502,374.246 c66.815,4.277 169.417,-2.373 171.847,-33.988 c0,0 -4.671,11.985 -55.219,21.503 c-57.028,10.732 -127.364,9.479 -169.081,2.601 C52.458428298950196,364.361 60.9974282989502,371.43 104.9104282989502,374.246 " id="svg_9" class="" fill-opacity="1" fill="#b6b6b6"/><g class="" fill-opacity="1" fill="#b6b6b6" id="svg_15"><path style="" d="M241.7981460761913,416.60327281528544 h-1.4789122138966695 v-0.8272619842209045 h3.981016881961299 v0.8272619842209045 h-1.4687528561957108 v4.127601900217987 h-1.0333518118689191 V416.60327281528544 zM249.73840978789758,416.8187963322272 h-0.023221389030762252 l-1.4651245141596543,3.9128040516834357 h-0.6705176082632597 l-1.4556908248659068,-3.9128040516834357 h-0.018141710180283013 v3.9128040516834357 h-0.9738470024775912 v-4.95486388443889 h1.433195104242356 l1.3497432374130545,3.50860674886673 l1.345389226969787,-3.50860674886673 h1.4281154253918773 v4.95486388443889 h-0.950625613446829 V416.8187963322272 z" id="svg_1" class="" fill="#b6b6b6"/><path style="" d="M111.38464827420901,463.1207947227527 c-4.573887970652947,3.9672291822242842 -9.404662557458701,6.194305523955823 -13.739805622139125,6.194305523955823 c-6.1877745082909215,0 -9.530928860313471,-3.710342566071476 -9.530928860313471,-9.661549173611508 c0,-6.437404440371616 3.5818992579950732,-11.144089729544234 17.952310726000835,-11.144089729544234 h5.3176980880445495 V463.1207947227527 M124.00547321242831,477.3605858774604 v-44.078550390829975 c0,-11.260196674698046 -6.422165403820178,-18.690315496134744 -21.906477876895316,-18.690315496134744 c-9.039651348631407,0 -16.958145008121328,2.232156020582019 -23.394098111678517,5.078953182072025 l1.8577111224609788,7.802386714336107 c5.067342487556644,-1.859888127682612 11.62665922033976,-3.5913329472888202 18.064789329118586,-3.5913329472888202 c8.919916061441539,0 12.757250598774997,3.5913329472888202 12.757250598774997,11.016372089875041 v5.5709563621613 h-4.451975678241445 c-21.672086981366057,0 -31.44829176331696,8.412673844800828 -31.44829176331696,21.040029798685 c0,10.897362471092386 6.442484119222095,17.091667995048212 18.57275721416651,17.091667995048212 c7.7973070354856295,0 13.617893329727623,-3.219065054389414 19.058955046998097,-7.930104354005301 l0.9876347022146058,6.690662714488366 H124.00547321242831 z" id="svg_10" class="" fill="#b6b6b6"/><path style="" d="M166.12617024060214,477.3605858774604 h-15.741199089227944 l-18.94429943865871,-61.6527878766737 h13.746336637804028 l11.755102528416165,37.879890856430876 l2.6131319343679626,11.392268324810505 c5.946852597096764,-16.47122150688253 10.152826685293572,-33.181913588144795 12.256539397799187,-49.272159181241385 h13.371891739682985 C181.6010490243835,436.0098230293378 175.15421089471815,458.29364847798297 166.12617024060214,477.3605858774604 " id="svg_11" class="" fill="#b6b6b6"/><path style="" d="M226.51121540987765,463.1207947227527 c-4.582595991539483,3.9672291822242842 -9.422078599231773,6.194305523955823 -13.757221663912194,6.194305523955823 c-6.1768894821827525,0 -9.528751855091837,-3.710342566071476 -9.528751855091837,-9.661549173611508 c0,-6.437404440371616 3.590607278881609,-11.144089729544234 17.959567410072946,-11.144089729544234 h5.326406108931086 V463.1207947227527 M239.1305890112825,477.3605858774604 v-44.078550390829975 c0,-11.260196674698046 -6.438130108778827,-18.690315496134744 -21.90430087167368,-18.690315496134744 c-9.046182364296309,0 -16.967578697415075,2.232156020582019 -23.40062912734342,5.078953182072025 l1.854808448832133,7.802386714336107 c5.069519492778278,-1.859888127682612 11.64117258848399,-3.5913329472888202 18.074223018412336,-3.5913329472888202 c8.913385045776637,0 12.756524930367785,3.5913329472888202 12.756524930367785,11.016372089875041 v5.5709563621613 h-4.459232362313559 c-21.678617997030962,0 -31.450468768538588,8.412673844800828 -31.450468768538588,21.040029798685 c0,10.897362471092386 6.437404440371616,17.091667995048212 18.565500530094397,17.091667995048212 c7.801661045928896,0 13.620070334949254,-3.219065054389414 19.07056574151348,-7.930104354005301 l0.9912630442506623,6.690662714488366 H239.1305890112825 z" id="svg_12" class="" fill="#b6b6b6"/><path style="" d="M61.64588430713076,487.8305296567053 c-3.5978639629537223,5.2531135998027425 -9.409016567901968,9.409016567901968 -15.770951493923608,11.760182207266643 l-6.231314612723601,-7.3328792548703845 c4.842385281321135,-2.484688626291557 8.995385575791518,-6.4976349181701565 10.924937870566415,-10.235552883715663 c1.669037336586035,-3.324286973435055 2.359873660251211,-7.608633249610684 2.359873660251211,-17.854345491027303 v-70.38620715746194 h13.408900828450763 v69.42179384427808 C66.33660489134472,476.9012377756956 65.24157126486284,482.4344593806819 61.64588430713076,487.8305296567053 " id="svg_13" class="" fill="#b6b6b6"/></g></g></svg>