<svg xmlns="http://www.w3.org/2000/svg" xmlns:xlink="http://www.w3.org/1999/xlink" viewBox="0 0 257.25 78.25" fill="#fff" fill-rule="evenodd" stroke="#000" stroke-linecap="round" stroke-linejoin="round"><style><![CDATA[.B{fill:#dcd9d8}.C{fill-rule:nonzero}.D{stroke:none}.E{fill:#d33833}.F{fill:#231f20}.G{stroke:#d33833}.H{stroke-width:.616}]]></style><use xlink:href="#A" x=".625" y=".625"/><symbol id="A" overflow="visible"><g class="D"><path d="M54.777 37.03c0 15.235-12.075 27.588-26.97 27.588S.837 52.265.837 37.03 12.912 9.443 27.807 9.443s26.97 12.35 26.97 27.588" class="E"/><g class="C"><path d="M1.937 43.864s-1.952-28.77 24.555-29.6l-1.85-3.082-14.384 4.83-4.1 4.725-3.596 6.884-2.055 8 .616 5.343" fill="#ef3d3a"/><path d="M9.338 18.21c-4.732 4.84-7.66 11.525-7.66 18.92s2.926 14.08 7.66 18.92 11.26 7.828 18.47 7.828 13.75-3 18.47-7.828 7.66-11.525 7.66-18.92-2.93-14.08-7.66-18.92-11.26-7.825-18.47-7.828-13.75 3-18.47 7.828zm-1.213 39C3.11 52.082 0 44.973 0 37.133s3.11-14.95 8.125-20.092 12-8.333 19.67-8.333 14.642 3.188 19.67 8.333 8.125 12.25 8.125 20.093-3.11 14.95-8.125 20.09-12 8.333-19.67 8.333-14.63-3.188-19.67-8.334" class="F"/></g><path d="M39.16 37.183l-4.1.616-5.55.616-3.596.102-3.492-.102-2.67-.822-2.375-2.57-1.85-5.24-.412-1.13-2.466-.82-1.437-2.375-1.027-3.4 1.13-2.98 2.67-.925 2.158 1.028 1.027 2.26 1.233-.205.412-.5-.412-2.375-.103-2.98.616-4.1-.025-2.348 1.875-2.995 3.287-2.375 5.754-2.466 6.37.925 5.547 4.008 2.57 4.1 1.644 2.98.412 7.398-1.233 6.37-2.26 5.65-2.157 2.98" fill="#f0d6b7"/><path d="M35.668 54.958l-14.692.615v2.466l1.232 8.63-.616.72-10.275-3.494-.72-1.233-1.027-11.6-2.375-7-.5-1.644 8.22-5.65 2.57-1.028 2.26 2.775 1.953 1.746 2.26.72 1.027.31 1.232 5.342.925 1.13 2.375-.823-1.644 3.185 8.938 4.212-1.13.616" fill="#335061"/><path d="M11.317 19.1l2.67-.925 2.158 1.028 1.027 2.26 1.232-.205.31-1.232-.616-2.375.616-5.65-.5-3.082 1.85-2.158 4.007-3.185-1.13-1.54-5.65 2.775-2.375 1.85-1.335 2.875-2.055 2.775-.616 3.287.412 3.494" fill="#6d6b6d"/><path d="M15.528 9.444s1.54-3.8 7.706-5.65.31-1.337.31-1.337l-6.678 2.568-2.57 2.57-1.13 2.055 2.375-.205m-3.095 8.938S10.3 11.186 18.5 10.16L18.2 8.93l-5.65 1.338-1.644 5.358.412 3.494 1.13-.72" class="B"/><g fill="#f7e4cd"><path d="M15.735 27.935l1.345-1.304s.608.07.7.8.413 7.192 4.83 10.688c.402.32-3.288-.5-3.288-.5l-3.287-5.125m18.596-6.5s.24-3.125 1.08-2.875.837 1.08.837 1.08-2.038 1.317-1.916 1.796"/><path d="M43.168 14.58s-1.694.357-1.85 1.85 1.85.31 2.157.205m-12.74-1.953s-2.26.31-2.26 1.746 2.57 1.337 3.288.72" class="C"/><path d="M16.75 21.374S12.845 19 12.435 21.27s-1.338 3.904.616 6.267l-1.335-.412-1.232-3.185-.412-3.082 2.375-2.466 2.67.205 1.54 1.232.09 1.544m1.875-6.485S20.37 5.848 29.207 4.1c7.275-1.437 11.096.31 12.535 1.953 0 0-6.472-7.705-12.625-5.342S18.432 7.4 18.535 10.164l.102 4.725M42.45 7.08s-2.98-.103-3.083 2.57c0 0 0 .412.205.82 0 0 2.375-2.67 3.8-1.233M29.4 10.75s-.5-4.1-4.01-1.716c-2.26 1.54-2.055 3.7-1.644 4.1s.3 1.25.625.67.2-2.418 1.34-2.93 2.982-1.087 3.7-.132"/></g><path d="M19.74 38.52l-9.657 4.316s4.007 15.913 1.954 20.855l-1.438-.5-.103-6.062-2.67-11.507-1.13-3.185 10.054-6.793 2.98 2.875m1.005 8.81l1.37 1.67v6.165h-1.642l-.205-4.83c0-.5.205-2.375.205-2.375m.306 8.13l-4.625.205 1.338.925 3.287.5" fill="#49728b"/><g fill="#335061"><path d="M36.59 55.06l3.8-.102.925 9.453-3.904.5-.82-9.875"/><path d="M37.62 55.06l5.754-.31 2.375-6.267c0-.31 2.055-8.63 2.055-8.63l-4.625-4.83-.925-.822-2.466 2.466v9.554L37.63 55.06"/></g><path d="M40.187 54.342l-3.596.72.5 2.877c1.335.616 3.596-1.028 3.596-1.028m-.4-20.55l7.19 5.343.205-2.466-5.445-5.034-1.94 2.17" fill="#49728b"/><path d="M24.335 75.302l-2.127-8.63-1.058-6.37-.175-4.73 9.627-.5h6l-.545 10.775.925 8.323-.102 1.54-7.81.616-4.725-1.028"/><path d="M35.256 54.96s-.5 10.685 1.027 18.288c0 0-3.082 1.952-7.604 2.466l8.63-.31 1.027-.616-1.232-16.85-.31-3.596" class="B"/><path d="M41.493 63.59l4.008-1.13 7.603-.412 1.13-3.492-2.055-6.063-2.375-.31-3.288 1.028-3.155 1.54-1.675-.308-1.305.5"/><path d="M41.42 61.533s2.67-1.233 3.083-1.13l-1.13-5.65 1.335-.5.925 5.96 6.268.31s1.232-2.375.925-4.83l1.13 3.288.103 1.85-1.644 2.466-1.85.412-3.083-.102-1.028-1.335-3.596.5-1.13.413" class="B"/><path d="M37.382 54.24l-2.26-5.74-2.375-3.4s.5-1.437 1.233-1.437h2.375l2.26.822-.205 3.8-1.028 5.96" class="C"/><path d="M37.825 52.286s-2.878-5.547-2.878-6.37c0 0 .5-1.233 1.233-.925s2.26 1.13 2.26 1.13v-1.953l-3.494-.72-2.375.31 4.008 9.453.82.102" class="B"/><path d="M25.26 38.726l-2.846-.3-2.67-.822v.925l1.305 1.44 4.1 1.85" class="C"/><path d="M20.667 39.033s3.185 1.337 4.213 1.027l.103 1.23-2.875-.615-1.746-1.233.31-.413" class="B"/><path d="M41.482 44.008c-1.744-.05-3.32-.26-4.697-.648.094-.565-.08-1.12.06-1.528.384-.275 1.03-.272 1.6-.337a2.8 2.8 0 0 0-1.788-.203c-.012-.392-.2-.635-.296-.942.98-.35 3.294-2.644 4.596-1.884.62.375.884 2.425.93 3.427.04.833-.075 1.67-.415 2.125" class="E"/></g><path d="M41.482 44.008c-1.744-.05-3.32-.26-4.697-.648.094-.565-.08-1.12.06-1.528.384-.275 1.03-.272 1.6-.337a2.8 2.8 0 0 0-1.788-.203c-.012-.392-.2-.635-.296-.942.98-.35 3.294-2.644 4.596-1.884.62.375.884 2.425.93 3.427.04.833-.075 1.67-.415 2.125z" fill="none" class="G H"/><path d="M33.145 41.157l-.015.398c-.544.357-1.422.354-2.02.654a5.25 5.25 0 0 1 2.174.55l-.038.996c-.998.683-1.91 1.7-3.084 2.34-.555.302-2.505 1.082-3.096.945-.334-.078-.365-.492-.497-.884-.285-.837-.94-2.17-.997-3.43-.073-1.592-.234-4.25 1.482-3.932 1.384.25 2.995.9 4.066 1.5.655.36 1.034.8 2.027.877" class="D E"/><path d="M33.145 41.157l-.015.398c-.544.357-1.422.354-2.02.654a5.25 5.25 0 0 1 2.174.55l-.038.996c-.998.683-1.91 1.7-3.084 2.34-.555.302-2.505 1.082-3.096.945-.334-.078-.365-.492-.497-.884-.285-.837-.94-2.17-.997-3.43-.073-1.592-.234-4.25 1.482-3.932 1.384.25 2.995.9 4.066 1.5.655.36 1.034.8 2.027.877z" fill="none" class="G H"/><path d="M34.125 43.057c-.153-.867-.33-1.115-.26-1.87 2.313-1.542 2.747 2.65.26 1.87" class="D E"/><path d="M34.125 43.057c-.153-.867-.33-1.115-.26-1.87 2.313-1.542 2.747 2.65.26 1.87z" fill="none" class="G H"/><g class="D"><path d="M37.5 43.748s-.72-1.028-.205-1.337 1.027 0 1.337-.5 0-.823.102-1.437.616-.72 1.13-.823 1.952-.31 2.157.205l-.616-1.85-1.233-.413-3.904 2.26-.205 1.13v2.265M26.7 47.15l-.4-4.806c-.218-2.39.575-1.975 2.647-1.975.316 0 1.95.377 2.066.616.56 1.145-.937.9.645 1.754 1.337.73 3.696-.442 3.156-2.062-.303-.36-1.575-.125-2.03-.35l-2.408-1.25c-1.02-.53-3.38-1.303-4.47-.563-2.76 1.875.175 6.563 1.16 8.52" fill="#ef3d3a"/><path d="M29.4 10.748c-2.8-.652-4.19 1.172-5.04 3.063-.758-.184-.456-1.215-.265-1.74.5-1.38 2.52-3.213 4.17-2.965.7.107 1.67.756 1.134 1.64m13.645 3.193l.133.005c.633 1.315 1.18 2.707 1.98 3.867-.535 1.245-4.05 2.348-3.995.125.76-.333 2.073-.067 2.746-.492-.4-1.07-.95-1.98-.875-3.492m-12.197.022c.6 1.1.796 2.257 1.65 3.088.384.375 1.13.83.75 1.872-.087.246-.72.794-1.085.9-1.334.394-4.444.08-3.4-1.582 1.104.05 2.587.716 3.412-.085-.634-1-1.75-3.016-1.348-4.196m11.708 11.188c-2.01 1.3-4.25 2.694-7.54 2.37-.704-.625-.97-1.972-.288-2.87.356.625.133 1.75 1.125 1.905 1.868.32 4.04-1.143 5.385-1.654.834-1.405-.07-1.92-.822-2.825-1.538-1.853-3.598-4.148-3.523-6.92.62-.45.675.688.75.895.802 1.877 2.82 4.28 4.295 5.875.375.396.957.775 1.025 1.038.19.75-.497 1.672-.417 2.18M16.06 23.798c-.63-.36-.78-1.942-1.52-2-1.056-.062-.875 2.054-.86 3.293-.727-.66-.855-2.693-.32-3.75-.61-.3-.88.33-1.22.55.434-3.154 4.625-1.462 3.918 1.88m27.768 2.7c-.935 1.78-2.258 3.74-5.002 3.797-.056-.575-.1-1.45.002-1.796 2.097-.2 3.392-1.27 5-2m-13.15 1.152c1.75.92 4.967 1.02 7.346.95.128.52.125 1.165.13 1.8-3.058.153-6.675-.604-7.475-2.75m-.332 1.716c1.2 3.037 5.37 2.688 8.877 2.605-.155.395-.5.86-.905 1.03-1.125.458-4.225.805-5.785-.025-1-.525-1.625-1.715-2.167-2.413-.25-.337-1.566-1.196-.02-1.197" class="F"/><path d="M42.4 46.105l-4.462 7.075c.706-2.078 1.01-5.554 1.115-8.204 1.477-.69 2.744.156 3.35 1.128" fill="#81b0c4"/><path d="M50.04 54.848c-1.6.32-2.708 1.875-4.26 1.765.852-1.2 2.346-1.71 4.26-1.765m.7 2.5c-1.296.125-2.82.346-4.132.25.622-.95 3.02-.623 4.132-.25m.45 2.133c-1.456.03-3.267.002-4.65-.125.82-.88 3.708-.325 4.65.125" class="F"/><path d="M39.658 65.354c.21 1.83.934 3.682.844 5.688-.805.27-1.268.51-2.348.507l-.25-5.93c.53.035 1.313-.38 1.74-.265" class="B"/><path d="M37.3 38.392c-.73.477-1.354 1.075-2.056 1.584-1.558.078-2.407-.108-3.553-1.002.02-.07.134-.04.125-.128 1.667.744 3.788-.302 5.47-.453" fill="#f0d6b7"/><path d="M28.555 49.758c.46-1.985 2.254-3 3.884-4.106 1.682 2.135 2.706 4.88 3.832 7.53-2.663-.802-5.382-2.105-7.716-3.425" fill="#81b0c4"/><path d="M37.92 65.618c-.068 1.625.16 4.225.25 5.93 1.08.001 1.54-.25 2.347-.508.09-2.004-.634-3.858-.844-5.687-.425-.125-1.21.3-1.74.265zm-16.804-9.245c.712 6.54 1.742 12.04 3.632 17.833C28.943 75.48 34 75.59 37.7 74.44c-.68-3.27-.384-7.25-.78-10.75-.3-2.623-.147-5.25-.56-7.937-4.494-.935-10.845-.22-15.254.606zm16.316-.565c-.038 2.8.125 5.58.34 8.394 1.08-.163 1.813-.27 2.813-.5-.325-2.708-.285-5.755-.95-8.15-.766.008-1.44-.01-2.205.248zm5.473-.453c-.5-.117-1.108-.005-1.597.005.23 2.3.787 4.818.984 7.22.77.025 1.18-.337 1.813-.462.034-2.1-.184-5.017-1.2-6.765zm8.287 7.57c1.604-.4 2.625-2.355 2.163-4.373-.3-1.356-.838-3.9-1.413-4.777-.425-.64-1.575-1.483-2.492-.894-1.494.956-4.125 1.234-5.213 2.392.546 1.82.716 4.316.94 6.62 1.866.116 4.163-.5 5.713.155-1.084.35-2.5.354-3.425.865.765.37 2.556.295 3.725.012zm-14.92-9.756c-1.128-2.65-2.15-5.396-3.833-7.53-1.63 1.094-3.425 2.12-3.884 4.106 2.334 1.32 5.054 2.623 7.716 3.425zm2.777-8.206c-.106 2.65-.41 6.127-1.115 8.204 1.685-2.146 3.044-4.644 4.462-7.075-.605-.97-1.87-1.82-3.35-1.128zm-3.15-1.12c-.625-.07-1.18.734-2 .375-.2.2-.375.438-.558.644 1.834 2.2 2.666 5.344 4.083 7.94.76-2.494.673-5.225.84-7.95-1.044.066-1.625-.944-2.355-1.02zm-2.025-2.66c-.067.756.108 1.004.26 1.87 2.5.777 2.052-3.413-.26-1.87zm-2.76-.905c-1.28-.686-2.648-1.19-4.066-1.5-1.716-.33-1.555 2.34-1.483 3.932.058 1.25.713 2.594.998 3.43.134.39.162.806.497.884.59.125 2.54-.64 3.096-.945 1.175-.64 2.088-1.657 3.084-2.34l.038-.996a5.25 5.25 0 0 0-2.174-.55c.598-.3 1.475-.296 2.02-.654l.015-.398c-.994-.075-1.373-.52-2.027-.877zm-10.25-1.86c-.9.902 2.495 2.134 3.572 2.2-.006-.57.325-1.1.26-1.52-1.28-.225-2.963-.075-3.83-.68zm10.958.425c-.004.087-.12.056-.125.127 1.145.895 1.995 1.08 3.552 1.003.703-.5 1.325-1.106 2.056-1.584-1.684.15-3.804 1.196-5.47.453zm10.057 3.05c-.047-1.004-.312-3.066-.93-3.427-1.3-.76-3.615 1.534-4.596 1.884.106.307.283.55.296.942a2.8 2.8 0 0 1 1.787.203c-.58.065-1.225.063-1.6.337-.14.407.035.962-.06 1.528 1.38.375 2.954.596 4.698.648.337-.44.455-1.28.415-2.125zm-22.5-2.6c-.28-.2-2.17-2.658-2.427-2.556-3.42 1.346-6.616 3.68-9.472 5.884 2.724 5.846 3.824 13.008 4.02 19.9 3.12 1.46 5.875 3.563 10.095 3.782-.5-3.468-.937-6.56-1.215-9.825-1.062-.45-2.6.02-3.588-.125-.01-1.2 1.52-.525 1.647-1.333.096-.6-.84-.656-.537-1.617.78.282 1.188.907 2.018 1.142.76-1.66-.01-4.596.1-5.983.02-.26.13-1.442.713-1.235.517.157-.028 3.133.017 4.445.05 1.2-.146 2.38.344 3.125a116.94 116.94 0 0 1 12.677-1.039c-.975-.417-2.13-.812-3.4-1.53-.687-.375-2.855-1.195-3.054-1.848-.316-1.04.83-1.595 1.027-2.5-2.065 1.125-2.47-1.08-2.957-2.642-.442-1.416-.695-2.475-.804-3.3-1.78-.85-3.68-1.708-5.213-2.795zm20.706-2.26c2.85-1.38 3.375 5.163 2.246 7.27.172.63.766.87 1.01 1.435-1.6 2.848-3.356 5.506-4.978 8.32 1.206-.75 2.93-.134 4.35-.696.52-.205.895-1.394 1.287-2.344 1.08-2.615 2.216-5.913 2.72-8.407.125-.57.425-1.808.355-2.312-.125-.906-1.354-1.578-1.98-2.125-1.152-1.035-1.877-1.946-3.08-2.913-.5.72-1.532 1.203-1.93 1.788zM12.868 11.77c-1.357 1.494-1.075 4.293-.91 6.284 2.454-1.544 5.7.122 5.68 2.747 1.17-.03.438-1.462.225-2.375-.692-3 1.166-6.287.084-9.042-2.1.16-3.83 1.018-5.08 2.397zm9.713-8.67c-3.075.87-7 3.104-8.275 5.865.978-.143 1.656-.635 2.62-.696.365-.025.842.153 1.25.05.835-.207 1.54-2.08 2.17-2.775.625-.68 1.352-.97 1.858-1.59.325-.156.804-.146.822-.632-.14-.15-.287-.265-.457-.218zm15.997.82C35.388 2.12 30 .767 26.595 2.458c-2.75 1.365-6.437 3.625-7.7 6.5 1.18 2.75-.35 5.293-.446 8.098-.05 1.492.703 2.795.76 4.42-.404.665-1.625.748-2.5.7-.287-1.437-.8-3.053-2.27-3.213-2.094-.23-3.625 1.504-3.72 3.315-.125 2.13 1.625 5.66 4.125 5.412.958-.095 1.193-1.054 2.235-1.044.565 1.127-.873 1.482-1.02 2.287-.037.21.12 1.023.213 1.405.45 1.86 1.454 4.266 2.44 5.68 1.254 1.796 3.716 2.066 6.365 2.242.475-1.02 2.216-.935 3.352-.67-1.375-.538-2.625-1.846-3.675-3.003-1.205-1.328-2.425-2.75-2.5-4.5 2.275 3.157 4.158 5.916 8.296 7.305 3.133 1.05 6.8-.48 9.196-2.17 1-.703 1.595-1.817 2.305-2.837 2.656-3.82 3.895-9.275 3.623-14.56-.125-2.18-.108-4.352-.837-5.82-.765-1.534-3.35-2.905-4.875-1.52-.28-1.49 1.26-2.412 3.066-1.875-1.288-1.662-2.64-3.662-4.475-4.696zm5.942 49.183c2.493-1.25 7.15-3.335 8.713.005.575 1.23 1.254 3.313 1.552 4.582.422 1.793-.457 5.563-2.3 6.163-1.627.53-3.528.5-5.5.105a2.78 2.78 0 0 1-.668-.875c-1.4-.054-2.712.075-3.816.65.105 1.035-.595 1.2-1.252 1.415-.5 1.93.975 4.45.625 6.2-.25 1.254-1.79 1.447-2.925 1.682-.038.696.05 1.28.127 1.868-.26.955-1.42 1.5-2.525 1.632-3.625.438-9.127.63-12.625-.622-.973-2.375-1.75-5.288-2.55-8-3.376.35-6.126-1.48-8.718-2.68-.897-.416-2.125-.645-2.475-1.36-.325-.69-.193-2.017-.273-3.27-.205-3.2-.38-6.284-1.225-9.56-.38-1.47-1.04-2.766-1.5-4.182-.425-1.312-1.17-2.934-1.365-4.242-.288-1.94 1.537-2.047 2.706-2.875 1.805-1.3 3.223-2.02 5.178-3.19.58-.347 2.325-1.225 2.525-1.63.395-.803-.678-1.935-.965-2.565-.454-.995-.7-1.84-.755-2.822-1.64-.26-2.884-1.235-3.635-2.338-1.242-1.82-2.104-5.19-1.03-7.755.084-.203.505-.6.566-.91.122-.6-.23-1.422-.253-2.073-.125-3.332.563-6.202 2.806-7.207.9-3.628 4.17-4.834 7.24-6.625 1.148-.675 2.413-1.105 3.72-1.585 4.688-1.725 11.88-1.4 15.77 1.543 1.65 1.248 4.288 3.883 5.23 5.8 2.49 5.035 2.313 13.45.57 19.575-.234.822-.575 2.03-1.05 3.02-.33.7-1.36 2.07-1.234 2.68.13.63 2.344 2.313 2.82 2.77.855.825 2.48 1.92 2.625 2.962.14 1.108-.5 2.625-.808 3.694-1.066 3.57-2.107 6.866-3.316 10.048" class="F"/><path d="M27.89 28.403c.135-.18.88-.454 1.92.047 0 0-1.233.205-1.13 2.25l-.5-.103s-.53-1.875-.275-2.206" fill="#f7e4cd"/><path d="M36.9 46.07c0 .312-.253.565-.565.565s-.565-.253-.565-.565.253-.565.565-.565.565.254.565.565m.565 2.62c0 .312-.253.565-.565.565s-.565-.253-.565-.565.253-.565.565-.565.565.254.565.565" fill="#1d1919"/><path d="M68.167 62.528v-5.093h2.818q.13 2.038.954 2.99.845.954 2.493.954 2.103 0 2.925-1.625.845-1.604.845-6.046V25.035h-4.7v-2.623h17.23v2.625h-4.142V53.88q0 5.266-2.666 7.694-2.644 2.427-8.43 2.427-1.8 0-3.62-.37-1.82-.37-3.706-1.105zm42.023-20.75q0-4.55-.845-6.37-.845-1.842-2.882-1.842-1.972 0-2.838 1.8-.845 1.8-.845 6.025v.4h7.413zm8.43 2.58h-15.843v.175q0 4.465 1.344 6.46 1.344 1.972 4.335 1.972 2.493 0 4.03-1.323 1.537-1.322 1.972-3.837h3.597q-.933 3.922-3.706 5.765-2.775 1.843-7.76 1.843-5.98 0-9.187-3.143-3.188-3.163-3.188-9.016 0-5.72 3.273-8.93 3.272-3.207 9.102-3.207 5.72 0 8.778 3.38 3.056 3.36 3.25 9.875zm3.555 10.412v-2.622h3.272V34.355h-3.272v-2.623h10.945v3.25q1.375-2.06 3.162-2.97 1.777-.9 4.5-.9 3.88 0 5.85 2.297 1.994 2.275 1.994 6.72v12.03h3.294v2.62h-13.75v-2.622h2.796V39.902q0-2.925-.76-4.053-.75-1.15-2.58-1.15-2.32 0-3.403 1.712-1.084 1.7-1.084 5.396v10.338h2.818v2.625h-13.785zm46.096 0h-13.85v-2.622h3.273v-28.5h-3.273v-2.6h10.945v21.65l9.298-8.344h-2.752v-2.623h10.5v2.623h-4.27l-5.937 5.33 9.71 12.463h2.492v2.62h-13.22v-2.622h2.71l-6.394-8.214-2.145 1.907v6.308h2.904v2.62zm19.484-29.562q0-1.755 1.212-2.948 1.213-1.212 2.97-1.212 1.713 0 2.904 1.212 1.213 1.193 1.213 2.948 0 1.712-1.213 2.925-1.192 1.192-2.904 1.192-1.755 0-2.97-1.192-1.212-1.192-1.212-2.925zm8.375 26.938h3.294v2.625h-14.25v-2.622h3.273V34.355h-3.273v-2.623h10.945v20.416zm5.97 2.625v-2.622h3.273V34.355H202.1v-2.623h10.945v3.25q1.375-2.06 3.162-2.97 1.778-.9 4.5-.9 3.88 0 5.85 2.297 1.994 2.275 1.994 6.72v12.03h3.294v2.62h-13.75v-2.622h2.796V39.902q0-2.925-.76-4.053-.75-1.15-2.58-1.15-2.32 0-3.402 1.712-1.084 1.7-1.084 5.396v10.338h2.818v2.625h-13.75zm32.813-.672V47.66h2.45q.304 2.58 1.93 3.944 1.625 1.344 4.42 1.344 2.34 0 3.575-.8 1.258-.825 1.258-2.34 0-1.375-.8-2.145-.78-.76-3.056-1.322l-3.162-.8q-3.575-.875-5.18-2.538-1.604-1.67-1.604-4.5 0-3.75 2.6-5.57 2.6-1.843 8.02-1.843 2.037 0 4.335.346 2.32.325 5.115 1.04v5.822h-2.45q-.195-2.375-1.7-3.554-1.475-1.193-4.248-1.193-2.34 0-3.554.76-1.192.75-1.192 2.168 0 1.17.694 1.843.694.67 2.492 1.127l3.143.8q4.53 1.15 6.25 2.838 1.734 1.7 1.734 4.703 0 3.9-2.796 5.765-2.775 1.843-8.648 1.843-2.145 0-4.55-.325-2.405-.325-5.093-.975z" fill="#000" class="C"/></g></symbol></svg>