<?xml version="1.0" encoding="UTF-8" standalone="no"?>
<svg
   xmlns:dc="http://purl.org/dc/elements/1.1/"
   xmlns:cc="http://creativecommons.org/ns#"
   xmlns:rdf="http://www.w3.org/1999/02/22-rdf-syntax-ns#"
   xmlns:svg="http://www.w3.org/2000/svg"
   xmlns="http://www.w3.org/2000/svg"
   xmlns:sodipodi="http://sodipodi.sourceforge.net/DTD/sodipodi-0.dtd"
   xmlns:inkscape="http://www.inkscape.org/namespaces/inkscape"
   role="img"
   viewBox="0.92 0.92 187.5782 162.42091"
   version="1.1"
   id="svg3741"
   sodipodi:docname="jfrog-artifactory - Copy.svg"
   inkscape:version="0.92.4 (5da689c313, 2019-01-14)"
   width="187.5782"
   height="162.42091">
  <metadata
     id="metadata3745">
    <rdf:RDF>
      <cc:Work
         rdf:about="">
        <dc:format>image/svg+xml</dc:format>
        <dc:type
           rdf:resource="http://purl.org/dc/dcmitype/StillImage" />
      </cc:Work>
    </rdf:RDF>
  </metadata>
  <sodipodi:namedview
     pagecolor="#ffffff"
     bordercolor="#666666"
     borderopacity="1"
     objecttolerance="10"
     gridtolerance="10"
     guidetolerance="10"
     inkscape:pageopacity="0"
     inkscape:pageshadow="2"
     inkscape:window-width="1920"
     inkscape:window-height="1001"
     id="namedview3743"
     showgrid="false"
     inkscape:zoom="4.4973839"
     inkscape:cx="103.25614"
     inkscape:cy="47.48434"
     inkscape:window-x="-9"
     inkscape:window-y="-9"
     inkscape:window-maximized="1"
     inkscape:current-layer="svg3741"
     showguides="false">
    <inkscape:grid
       type="xygrid"
       id="grid3747"
       originx="-55.138421"
       originy="-11.48932" />
  </sodipodi:namedview>
  <title
     id="title3730">JFrog Artifactory logo</title>
  <defs
     id="defs3735">
    <clipPath
       id="a"
       clipPathUnits="userSpaceOnUse">
      <path
         d="M 0,136.32 H 219.23 V 0 H 0 Z"
         id="path3732"
         inkscape:connector-curvature="0" />
    </clipPath>
  </defs>
  <g
     clip-path="url(#a)"
     transform="matrix(1.33333,0,0,-1.33333,-55.138421,176.01023)"
     id="g3739"
     style="fill:#61a63a">
    <path
       d="m 49.609921,26.187011 h 4.493 c 0,0 -0.76,2.413 -1.254,4.627 -0.303803,1.35577 -0.612472,2.710446 -0.926,4.064 0,0 -0.661,-2.71 -1.09,-4.429 -0.43,-1.65 -0.726,-2.742 -1.223,-4.262 m -0.033,13.746 h 4.99 l 7.236,-23.03 h -4.956 l -1.62,5.452 h -6.74 l -1.62,-5.452 h -4.823 z m 12.065,-6.773 3.965,1.057 c 0.396,-0.694 0.628,-1.455 0.694,-2.412 0.627,0.858 1.685,1.75 2.51,2.147 0.364,0.166 0.959,0.265 1.455,0.265 0.66,0 0.957,-0.066 1.652,-0.364 l -1.223,-3.9 c -0.429,0.232 -0.792,0.33 -1.289,0.33 -0.991,0 -1.882,-0.461 -2.709,-1.418 v -11.962 h -4.428 v 11.3 c 0,2.28 -0.264,3.998 -0.627,4.957 m 20.851,0.693 -1.124,-2.94 h -2.841 v -8.623 c 0,-2.147 0.396,-2.71 1.916,-2.71 0.397,0 0.793,0.1 1.587,0.33 l 0.56,-2.643 c -1.288,-0.528 -2.444,-0.759 -3.601,-0.759 -2.247,0 -4.064,0.99 -4.56,2.477 -0.264,0.727 -0.297,1.057 -0.297,2.61 v 9.32 h -1.685 v 2.873 h 1.685 c 0,1.652 0,2.775 0.166,4.031 l 4.493,1.123 c -0.17456,-1.6904 -0.26268,-3.388612 -0.264,-5.088 z m 1.357,-0.33 4.427,0.693 v -17.313 h -4.427 z m 2.28,7.698 c 1.487,0 2.676,-1.222 2.676,-2.742 0.004,-1.516201 -1.2258,-2.746443 -2.742,-2.742 -1.488,0 -2.71,1.221 -2.71,2.742 0,1.52 1.255,2.742 2.776,2.742 m 13.648,-3.634 c -0.96,0.462 -1.29,0.561 -1.817,0.561 -1.125,0 -1.851,-0.693 -1.851,-1.916 v -2.379 h 4.294999 l -1.121999,-3.105 h -3.14 v -13.845 h -4.328 v 13.845 h -1.521 v 3.105 h 1.62 c -0.10661,0.755382 -0.16174,1.517139 -0.165,2.28 0,3.338 1.982,5.254 5.452,5.254 1.453,0 2.643,-0.299 3.997999,-1.058 z m 9.286999,-13.283 h -0.198 c -3.074,0 -4.13,-0.561 -4.13,-2.577 0,-1.321 0.825,-2.214 1.949,-2.214 0.826,0 1.65,0.43 2.313,1.158 z m -8.69,7.5 c 1.09,0.694 1.552,0.926 2.742,1.389 1.653,0.694 3.072,0.99 4.626,0.99 2.842,0 4.79,-1.056 5.452,-2.94 0.23,-0.694 0.297,-1.222 0.297,-3.04 l -0.1,-5.682 v -0.297 c 0,-1.818 0.299,-2.513 1.588,-3.47 l -2.348,-2.71 c -1.023,0.43 -1.948,1.19 -2.378,2.05 -0.628,-0.596 -0.694,-0.662 -1.024,-0.893 -0.827,-0.595 -2.016,-0.925 -3.404,-0.925 -3.767,0 -5.815,1.917 -5.815,5.286 0,3.965 2.743,5.816 8.128,5.816 0.33,0 0.53,0 0.992,-0.033 v 0.693 c 0,1.884 -0.363,2.51 -1.983,2.51 -1.421,0 -3.073,-0.692 -4.89,-1.914 z m 27.527,0.562 -2.15,-2.907 c -0.891,0.825 -1.848,1.322 -2.675,1.322 -1.983,0 -2.874,-1.718 -2.874,-5.683 0,-2.214 0.264,-3.536 0.858,-4.263 0.48265,-0.602237 1.21124,-0.954589 1.983,-0.959 1.025,0 1.949,0.431 3.04,1.388 l 0.265,0.232 2.015,-2.676 c -0.662,-0.661 -0.96,-0.893 -1.553,-1.257 -1.19,-0.693 -2.511,-1.056 -4.13,-1.056 -4.66,0 -7.368,3.237 -7.368,8.723 0,3.899 1.486,6.476 3.469,7.831 1.124,0.759 2.776,1.255 4.196,1.255 1.13289,-0.01294 2.24939,-0.272279 3.272,-0.76 0.627,-0.33 0.924,-0.561 1.652,-1.19 m 11.005,1.487 -1.124,-2.94 h -2.84 v -8.623 c 0,-2.147 0.395,-2.71 1.915,-2.71 0.397,0 0.793,0.1 1.587,0.33 l 0.561,-2.643 c -1.289,-0.528 -2.445,-0.759 -3.602,-0.759 -2.247,0 -4.064,0.99 -4.559,2.477 -0.265,0.727 -0.298,1.057 -0.298,2.61 v 9.32 h -1.685 v 2.873 h 1.685 c 0,1.652 0,2.775 0.166,4.031 l 4.493,1.123 c -0.17456,-1.6904 -0.26268,-3.388612 -0.264,-5.088 z m 8.031,-2.973 c -1.057,0 -1.917,-0.662 -2.28,-1.718 -0.297,-0.893 -0.462,-2.082 -0.462,-3.768 0,-1.949 0.198,-3.403 0.561,-4.262 0.397,-0.924 1.39,-1.388 2.247,-1.388 1.917,0 2.742,1.718 2.742,5.717 0,2.28 -0.297,3.767 -0.89,4.526 -0.43,0.561 -1.126,0.893 -1.918,0.893 m -0.066,3.27 c 2.412,0 4.295,-0.825 5.75,-2.544 1.353,-1.586 1.95,-3.436 1.95,-6.178 0,-2.908 -0.663,-4.89 -2.115,-6.543 -1.29,-1.454 -2.975,-2.345 -5.585,-2.345 -4.593,0 -7.6,3.435 -7.6,8.755 0,5.32 3.04,8.855 7.6,8.855 m 8.924,-0.99 3.965,1.057 c 0.396,-0.694 0.628,-1.455 0.694,-2.412 0.627,0.858 1.685,1.75 2.51,2.147 0.364,0.166 0.959,0.265 1.455,0.265 0.66,0 0.957,-0.066 1.652,-0.364 l -1.223,-3.9 c -0.43,0.232 -0.792,0.33 -1.29,0.33 -0.99,0 -1.881,-0.461 -2.708,-1.418 v -11.962 h -4.428 v 11.3 c 0,2.28 -0.264,3.998 -0.627,4.957 m 10.18,0.363 4.526,0.528 2.942,-9.847 c 0.297,-1.023 0.892,-3.5 0.892,-3.5 0,0 0.33,1.883 0.528,2.708 0.264,1.058 0.33,1.223 0.662,2.346 l 2.544,8.03 h 4.658 l -6.146,-17.149 c -1.155,-3.272 -2.015,-4.692 -3.237,-5.585 -1.124,-0.825 -2.578,-1.3539997 -4.097,-1.5519997 l -1.521,2.9069997 c 0.958,0.265 2.082,0.661 2.742,1.123 0.496,0.365 0.893,0.827 1.257,1.388 0.429,0.694 0.561,0.992 0.957,1.983 h -1.122 c -0.265,0.792 -0.398,1.124 -0.695,1.983 -0.331,1.023 -0.859,2.708 -0.892,2.775 z M 109.583,125.939 c -13.76,0 -24.953,-11.193 -24.953,-24.953 0,-13.76 11.193,-24.952 24.953,-24.952 13.76,0 24.953,11.193 24.953,24.952 0,13.76 -11.193,24.953 -24.953,24.953 m 0,-55.284 c -16.725,0 -30.332,13.606 -30.332,30.33 0,16.726 13.607,30.333 30.332,30.333 16.725,0 30.332,-13.607 30.332,-30.332 0,-16.725 -13.607,-30.331 -30.332,-30.331 M 139.979,53.05 H 79.662 v 5.379 h 60.317 z"
       id="path3737"
       inkscape:connector-curvature="0"
       sodipodi:nodetypes="cccccccccccccccccccsccscccsccccssccscsccccccccccccccccsccsscccccccccccscccsssccccscccsccccssscssccccssccccccsscccccccssccscsccccccccccscssccccscsscccccsccscccscccccccccccccccccccccsssccssscccccc" />
  </g>
</svg>
