<svg xmlns="http://www.w3.org/2000/svg" xmlns:xlink="http://www.w3.org/1999/xlink" viewBox="0 0 160.586 150.586" fill="#fff" fill-rule="evenodd" stroke="#000" stroke-linecap="round" stroke-linejoin="round"><use xlink:href="#A" x="1.293" y="1.293"/><symbol id="A" overflow="visible"><path d="M19.23 0c4.914 0 8.76 1.63 11.553 4.862s4.293 7.324 4.495 12.22c0 4.836-1.57 8.915-4.733 12.228s-7.484 4.966-12.95 4.966h-.194c-5.338 0-9.564-1.655-12.71-4.966C1.552 26.002 0 21.92 0 17.087 0 12.114 1.715 8.028 5.172 4.8S13.324 0 19.23 0zM2.07 47.855h33.724v99.55H2.07v-99.55zm155.7 42.473v57.078h-33.724V94.138c0-6.776-1.327-12.2-3.962-16.33-2.622-4.094-6.983-6.145-13.203-6.145-4.717 0-8.51 1.257-11.328 3.783-2.832 2.51-4.883 5.29-6.122 8.338-.403 1.104-.657 2.323-.79 3.678-.13 1.332-.186 2.778-.186 4.298v55.653h-33.93l.222-46.31V67.327l-.13-12.538-.093-6.93h33.93v14.095l-.186.41h.186v-.41c1.053-1.733 2.397-3.543 4.04-5.44 1.663-1.888 3.652-3.662 6.072-5.296 2.397-1.62 5.286-2.948 8.672-4.035 3.406-1.068 7.283-1.595 11.697-1.595 5.488 0 10.616.88 15.398 2.638 4.77 1.764 8.866 4.526 12.352 8.294 3.466 3.745 6.18 8.405 8.154 13.976 1.966 5.555 2.93 12.168 2.93 19.836z" fill="#00679b" stroke="none"/></symbol></svg>