<svg xmlns="http://www.w3.org/2000/svg" width="173.38094295233532" height="187.38095021842548" style=""><rect id="backgroundrect" width="100%" height="100%" x="0" y="0" fill="none" stroke="none" class="" style=""/><g class="currentLayer" style=""><title>Layer 1</title><path d="M159.03716599069634,149.33520199631846 c-0.1649486881152987,0.03727280923892857 -0.33061454443979515,0.44848912855971335 -0.33061454443979515,0.6725311232241413 c-0.032989737623059893,1.4957740403274264 -0.06597947524611965,5.458845996579561 -0.06597947524611965,8.150591046399555 c0,0.07495075770871489 0.09896921286917972,0.2244471338952857 0.19829700984295695,0.2244471338952857 c0.49628040076429,0.03727280923892857 1.6874967962404228,0.07454561847785672 2.713405919496658,0.07454561847785672 c1.4228617270467483,0 2.2501152563554285,-0.2240419946644277 2.7137645036012557,-0.4480839893288561 c1.1908578113715342,-0.6733414016858579 1.753476271486541,-2.1314374935434963 1.753476271486541,-3.7394351008185662 c0,-3.625996116178348 -2.2501152563554285,-5.0095465895581315 -5.59247769531781,-5.0095465895581315 c-0.23164533157061548,-0.03727280923892857 -0.8928744204502027,-0.03727280923892857 -1.3898719894236877,0.07495075770871489 zm8.53788753048968,16.711993272889035 c0,-3.70135201311792 -2.415781112679924,-5.757838748952702 -6.783694090793944,-5.757838748952702 c-0.19865559394755536,0 -1.5885275833712424,-0.03727280923892857 -1.9195007119156342,0.03727280923892857 c-0.0993277969737781,0.03767794846978653 -0.2312867474660167,0.11262870617850078 -0.2312867474660167,0.22485227312614328 c0,2.6540671013502077 -0.033348321727658385,6.879264139967414 0.06597947524611965,8.524129417250553 c0.06597947524611965,0.710209071693928 0.529628722491948,1.7198160349918534 1.0922471826069535,2.0188087873649954 c0.5952496136334705,0.3739435100818568 1.952131865434096,0.44848912855971335 2.8787131917165545,0.44848912855971335 c2.61407812252288,0 4.8975417006059665,-1.6448652772831405 4.8975417006059665,-5.495713666587631 zm-15.287874715451368,-18.768074869492963 c0.33061454443979515,0 1.3231753459683717,0.11181842771678491 3.8712739932451314,0.11181842771678491 c2.415781112679924,0 4.3349232404909595,-0.07454561847785672 6.684366293820166,-0.07454561847785672 c2.8787131917165545,0 6.849673566040061,1.1586982002536401 6.849673566040061,6.019153552856058 c0,2.3927522974468522 -1.4891997863974655,4.299742657095063 -3.44133165183156,5.234398862684276 c-0.09896921286917972,0.03727280923892857 -0.09896921286917972,0.11181842771678491 0,0.14909123695571333 c2.7793853947427767,0.7855649686334992 5.228514829150358,2.7294229982897806 5.228514829150358,6.3930970629379145 c0,3.589533585401136 -1.985480187161753,5.870062315900346 -4.864551962982907,7.290885598519057 c-1.75383485559114,0.8597054478804987 -3.937612052595849,1.1586982002536401 -6.154737571328219,1.1586982002536401 c-1.6878553803450207,0 -6.221075630678935,-0.2240419946644277 -8.735825956228037,-0.14909123695571333 c-0.264635069193676,-0.11262870617850078 0.23164533157061548,-1.4585012310884986 0.4629320790366308,-1.6825432257529256 c0.5959667818426646,-0.03767794846978653 1.0588988608792955,-0.07495075770871489 1.6878553803450207,-0.2993978916040012 c0.8935915886593992,-0.2613148039033572 0.9925608015285776,-0.5607126955073565 1.1248783361254149,-2.093354405842852 c0.06633805935071799,-1.3085997156710691 0.06633805935071799,-5.94501307360906 0.06633805935071799,-9.23474362817534 c0,-4.523784651759491 0.033348321727658385,-7.589473211661341 0,-9.084842112757908 c-0.032989737623059893,-1.1586982002536401 -0.39695260379051245,-1.5330468495663543 -1.1248783361254149,-1.7574939834616397 c-0.5629770442196056,-0.11181842771678491 -1.4891997863974655,-0.26171994313421487 -2.2504738404600273,-0.37353837085099884 c-0.1656658563244958,-0.18717432465635753 0.39695260379051245,-1.4585012310884986 0.5959667818426646,-1.6075924680442109 zm-19.093886401659578,23.254586712013527 c0.7946223757902191,0.7098039324630718 2.349801637433804,1.0087966848362109 3.739673626857492,1.0087966848362109 c1.7868245932141997,0 3.573649186428398,-0.3731332316201405 5.294494304396478,-2.131032354312638 c1.75383485559114,-1.793956514238852 2.9780409886903314,-4.560652321767561 2.9780409886903314,-8.972213406579408 c0,-4.225197038617206 -1.4228617270467483,-7.664829108600914 -4.3349232404909595,-9.683232756735052 c-1.6545070586173618,-1.1595084787153558 -3.7723047803759524,-1.6448652772831405 -6.221075630678935,-1.6448652772831405 c-0.7279257323349044,0 -1.4228617270467483,0.03727280923892857 -1.8528040684603186,0.2613148039033572 c-0.09968638107837612,0.07495075770871489 -0.3309731285443933,0.41121631932078545 -0.3309731285443933,0.5979855047462849 c-0.06633805935071799,0.7478870201637129 -0.06633805935071799,6.505320629885557 -0.06633805935071799,9.870407081391408 c0,3.4769048792226362 0,8.337360231825055 0.06633805935071799,8.89807292733241 c0,0.5611178347382135 0.2312867474660167,1.4208232826187117 0.7279257323349044,1.794766792700568 zm-7.511619823128847,-23.25499185124438 c0.6289565194657255,0 3.0443790480410495,0.11222356694764277 4.202605705894123,0.11222356694764277 c2.08516656824013,0 3.5740077705329965,-0.11181842771678491 7.511619823128847,-0.11181842771678491 c3.3090141172347236,0 6.088758096082099,1.0092018240670688 8.074238283243853,2.9157870444844223 c2.4154225285753252,2.3554794882079237 3.6733355675067747,5.608342372766131 3.6733355675067747,9.571009189787409 c0,5.64561518200506 -2.2834635780830865,8.898478066563268 -4.566927156166173,10.767790477741691 c-2.2827464098738894,1.906585220417353 -5.26114598266882,3.0280106114320664 -9.496741426186002,3.0280106114320664 c-2.2501152563554285,0 -6.121747833705159,-0.07454561847785672 -9.331792738070703,-0.11222356694764277 h-0.032989737623059893 c-0.1653072722198974,-0.33626556161207133 0.264635069193676,-1.6448652772831405 0.5292701383873485,-1.6821380865220674 c0.8606018510363397,-0.11222356694764277 1.0922471826069535,-0.14990151541742977 1.5225481081251235,-0.33626556161207133 c0.6945774106072466,-0.2993978916040012 0.8272535293086809,-0.7106142109247858 0.9265813262824585,-2.09375954507371 c0.09896921286917972,-2.5799266221032098 0.06597947524611965,-5.682887991243987 0.06597947524611965,-9.197470818936411 c0,-2.5045707251636373 0.032989737623059893,-7.40270402623584 -0.033348321727658385,-8.973023685041124 c-0.09896921286917972,-1.308194576440211 -0.5952496136334705,-1.6448652772831405 -1.588168999266645,-1.8693124111784245 c-0.49628040076429,-0.11181842771678491 -1.158226657853073,-0.26171994313421487 -2.0844494000309326,-0.37353837085099884 c-0.13267611870143572,-0.2621250823650728 0.4629320790366308,-1.4208232826187117 0.6282393512565296,-1.6448652772831405 z" fill="#58aa50" id="svg_2" filter="" class="" fill-opacity="1"/><path d="M79.38948947161464,171.27499289396417 c-0.9588078524167825,-0.11394662010323414 -1.6491328818334585,-0.2653269673883983 -2.4928172946666045,-0.645011914519391 c-0.11512343958363669,-0.07610153328194368 -0.3071343749180778,-0.455375120773574 -0.3071343749180778,-0.6075781873374605 c-0.07647188766566465,-1.3286916351387945 -0.07647188766566465,-5.124718387169997 -0.07647188766566465,-7.667743677704989 c0,-2.0502164425794884 -0.34495471066577,-3.834283198491856 -1.2272906754168864,-5.086873300348706 c-1.0356953481675855,-1.4430496148813896 -2.531053238499436,-2.277698323146594 -4.4490845514181405,-2.277698323146594 c-1.6873688256662915,0 -3.950354849250763,1.1386434817536168 -5.829734610251493,2.7330734439201683 c-0.03823594383283246,0.03784508682129086 -0.34495471066577,0.3039947734884126 -0.3067187668329385,-0.11394662010323414 c0,-0.41753003395228333 0.07688749575080403,-1.2525901018568502 0.11512343958363669,-1.8223232023730196 c0.03865155191797183,-0.5314766540555181 -0.26848282300010545,-0.7968036214439141 -0.26848282300010545,-0.7968036214439141 c-1.2272906754168864,0.6071668276980994 -4.678915822500271,1.4043818087813749 -5.94485804983513,1.5179170692452464 c-0.9201563004988097,0.19045951302453926 -1.1504031796660823,1.0633646677503967 -0.19117971916416104,1.3669480815994461 h0.03823594383283246 c1.0348641319973066,0.3035834138490508 1.7256047694991237,0.6454232741587522 2.2621548074141926,0.9872631344684534 c0.3836062625837421,0.3035834138490508 0.34537031875090934,0.7211134478013325 0.34537031875090934,1.062953308111035 c0.03823594383283246,2.846608704384041 0.03823594383283246,7.2123685569314135 -0.07647188766566465,9.604013500181242 c-0.03823594383283246,0.9490066880078005 -0.3067187668329385,1.2904351886781416 -0.9974594043347532,1.442226895602666 l0.07688749575080403,-0.03784508682129086 c-0.5369656460002091,0.11394662010323414 -0.9588078524167825,0.2274818805671065 -1.6108969380006268,0.3035834138490508 c-0.23024687916727254,0.22789324020646856 -0.23024687916727254,1.4426382552420276 0,1.7083765822697865 c0.42184220641657283,0 2.6461766780830738,-0.11394662010323414 4.487736103336112,-0.11394662010323414 c2.531053238499436,0 3.8352314096671263,0.11394662010323414 4.4869048871658315,0.11394662010323414 c0.26848282300010545,-0.3035834138490508 0.34537031875090934,-1.4426382552420276 0.19201093533444044,-1.7083765822697865 c-0.7289765813346485,-0.03784508682129086 -1.2659422273348584,-0.11353526046387252 -1.7642563214170952,-0.26573832702776 c-0.6903250294166787,-0.15220306656388713 -0.8823359647511174,-0.49322020759486646 -0.9209875166690896,-1.2904351886781416 c-0.07605627958052526,-2.012371355758198 -0.07605627958052526,-6.263773228562975 -0.07605627958052526,-9.148638379407666 c0,-0.7972149810832763 0.22983127108213308,-1.176899928214269 0.4596625421642658,-1.4047931684207362 c0.8823359647511174,-0.7589585346226237 2.3016375755024447,-1.2904351886781416 3.567164194752162,-1.2904351886781416 c1.2272906754168864,0 2.03232353633206,0.3796849471309932 2.6461766780830738,0.8733165143652195 c0.8436844128331464,0.6828570013406802 1.1121672358332502,1.6701201358091335 1.2272906754168864,2.3912335836104663 c0.19159532724930095,1.632275048987843 0.11512343958363669,4.858980060142237 0.11512343958363669,7.66815503734435 c0,1.5183284288846093 -0.11512343958363669,1.8980133760156015 -0.6899094213315398,2.087650169761417 c-0.268898431085245,0.11394662010323414 -0.9592234605019213,0.2661496866671216 -1.7646719295022342,0.3414285006703412 c-0.26848282300010545,0.2661496866671216 -0.19159532724930095,1.4430496148813896 0,1.7087879419091476 c1.1121672358332502,0 2.4163454070009402,-0.11394662010323414 4.333961111834504,-0.11394662010323414 c2.3776938550829687,0 3.9121189054179286,0.11394662010323414 4.525972047168945,0.11394662010323414 c0.19117971916416104,-0.22789324020646856 0.2680672149149658,-1.3286916351387945 0.1147078314984971,-1.632686408627205 zm10.6237738723354,-14.500427287505408 c-2.03232353633206,0 -3.298265763666917,1.5561735157059 -3.298265763666917,3.9852521861376573 c0,2.4677464765317714 1.1121672358332502,5.3147665405551745 4.2570736160837,5.3147665405551745 c0.5369656460002091,0 1.5344250503349637,-0.22789324020646856 1.9940875924992274,-0.7593698942619856 c0.7289765813346485,-0.6828570013406802 1.2277062835020254,-2.0498050829401264 1.2277062835020254,-3.4924433381821536 c0,-3.150603477872451 -1.5726609941677947,-5.048616853888053 -4.180601728418035,-5.048616853888053 zm-0.26848282300010545,16.778125610652005 c-0.7667969170823431,0 -1.30417817116769,0.22789324020646856 -1.6491328818334585,0.4179413935916459 c-1.6108969380006268,1.0242855020110204 -2.339457911250136,2.0115486364794744 -2.339457911250136,3.188859924333104 c0,1.1003870352929639 0.42184220641657283,1.9732921900188212 1.3424141150005222,2.7326620842808063 c1.1121672358332502,0.9490066880078005 2.6461766780830738,1.4047931684207362 4.602028326749469,1.4047931684207362 c3.9121189054179286,0 5.638139283002194,-2.088061529400779 5.638139283002194,-4.137455252701544 c0,-1.4430496148813896 -0.7289765813346485,-2.3920563028891904 -2.2243344716665,-2.9231215973053457 c-1.0739312920004178,-0.4557864804129366 -3.029782940666813,-0.6836797206194055 -5.369656460002088,-0.6836797206194055 zm0.26848282300010545,9.870163186848362 c-2.339457911250136,0 -4.027242345001566,-0.493631567234227 -5.484364291500585,-1.594429962166552 c-1.4193016107513259,-1.062953308111035 -2.0327391444171994,-2.6573832702775877 -2.0327391444171994,-3.758181665209912 c0,-0.3035834138490508 0.07688749575080403,-1.1390548413929784 0.7672125251674825,-1.8980133760156015 c0.4214265983314336,-0.4557864804129366 1.3424141150005222,-1.3286916351387945 3.5285126428341904,-2.8091749772021117 c0.07647188766566465,-0.03784508682129086 0.1147078314984971,-0.07569017364258177 0.1147078314984971,-0.15220306656388713 c0,-0.07569017364258177 -0.07688749575080403,-0.15179170692452493 -0.15335938341646896,-0.1892254341064539 c-1.8024922652499273,-0.6832683609800425 -2.339457911250136,-1.7844781155517295 -2.493232902751744,-2.3916449432498283 v-0.07610153328194368 c-0.03782033574769291,-0.22789324020646856 -0.1147078314984971,-0.455375120773574 0.230662487252412,-0.6832683609800425 c0.26848282300010545,-0.18963679374581568 0.6520890855838459,-0.41753003395228333 1.0735156839152786,-0.6828570013406802 c0.6520890855838459,-0.38009630677035505 1.3424141150005222,-0.7976263407226373 1.7642563214170952,-1.1394662010323398 c0.07688749575080403,-0.07569017364258177 0.07688749575080403,-0.1513803472851633 0.07688749575080403,-0.2274818805671065 c0,-0.07610153328194368 -0.07688749575080403,-0.15220306656388713 -0.15377499150160823,-0.18963679374581568 c-2.683997013830765,-0.8733165143652195 -4.026411128831287,-2.8474314236627642 -4.026411128831287,-5.8083981077894 c0,-1.9358584628368924 0.8819203566659786,-3.68208013192797 2.4541657427486325,-4.782878526860295 c1.0739312920004178,-0.8350600679045668 3.758759522001463,-1.8601682891943108 5.523015843418557,-1.8601682891943108 h0.11512343958363669 c1.8024922652499273,0.03784508682129086 2.799536061499541,0.41753003395228333 4.218422064165729,0.9111616011865098 c0.7672125251674825,0.26573832702776 1.49618910650213,0.37927358749163087 2.4936485108368833,0.37927358749163087 c1.4953578903318516,0 2.147446975915696,-0.455375120773574 2.683997013830765,-0.9864404151897306 c0.03865155191797183,0.07569017364258177 0.11553904766877562,0.26573832702776 0.15377499150160823,0.7589585346226237 c0.03823594383283246,0.493631567234227 -0.11512343958363669,1.2147450150355594 -0.49872970216737733,1.7462216690910766 c-0.3067187668329385,0.41753003395228333 -0.9970437962496137,0.721524807440696 -1.6873688256662915,0.721524807440696 h-0.19201093533444044 c-0.6903250294166787,-0.07610153328194368 -0.9974594043347532,-0.15220306656388713 -0.9974594043347532,-0.15220306656388713 l-0.15294377533132947,0.07610153328194368 c-0.03823594383283246,0.07610153328194368 0,0.15179170692452493 0.03823594383283246,0.26573832702776 l0.03865155191797183,0.07610153328194368 c0.07647188766566465,0.3414285006703412 0.22983127108213308,1.3661253623207223 0.22983127108213308,1.632275048987843 c0,3.1127583910511616 -1.265526619249718,4.478883753371883 -2.6079407342502408,5.503991974661628 c-1.30417817116769,0.9490066880078005 -2.799536061499541,1.5561735157059 -4.487320495250972,1.7083765822697865 c-0.03823594383283246,0 -0.19117971916416104,0 -0.5369656460002091,0.03784508682129086 c-0.19159532724930095,0 -0.4600781502494053,0.038256446460652786 -0.49872970216737733,0.038256446460652786 h-0.03823594383283246 c-0.3067187668329385,0.07569017364258177 -1.0735156839152786,0.455375120773574 -1.0735156839152786,1.1003870352929639 c0,0.5693217408768088 0.34495471066577,1.2530014614962122 1.9940875924992274,1.3669480815994461 c0.34495471066577,0.03784508682129086 0.6899094213315398,0.03784508682129086 1.0739312920004178,0.07610153328194368 c2.1860985278336678,0.1513803472851633 4.909162701667546,0.3414285006703412 6.174689320917262,0.7589585346226237 c1.7642563214170952,0.645011914519391 2.876423557250343,2.201596789864651 2.876423557250343,4.061765079058962 c0,2.8095863368414733 -2.03232353633206,5.428713160658408 -5.4074767957497825,7.06057685000689 c-1.6491328818334585,0.721524807440696 -3.2986813717520573,1.1012097545716875 -5.101173637001984,1.1012097545716875 zm21.860985278336678,-26.458652003754548 c-0.805032860915174,0 -1.5340094422498236,0.1892254341064539 -2.0709750882500315,0.5689103812374462 c-1.4953578903318516,0.9111616011865098 -2.262570415499332,2.7334848035595307 -2.262570415499332,5.3904567141977555 c0,4.973338039884834 2.531053238499436,8.465781378066987 6.136453377084432,8.465781378066987 c1.0739312920004178,0 1.9176157048335631,-0.3039947734884126 2.6461766780830738,-0.9111616011865098 c1.1121672358332502,-0.9115729608258716 1.6877844337514312,-2.7334848035595307 1.6877844337514312,-5.276921453733883 c0,-4.9346702337848205 -2.493232902751744,-8.237476778221158 -6.136453377084432,-8.237476778221158 zm0.6907406375018201,16.24706031623585 c-6.5200596396681725,0 -8.859517550918309,-4.7450334400390055 -8.859517550918309,-9.186483466228959 c0,-3.1127583910511616 1.265526619249718,-5.5044033343009895 3.7965798577491543,-7.212779916570775 c1.8029078733350672,-1.1007983949323255 3.950770457335902,-1.7079652226304254 5.868386162169465,-1.7079652226304254 c4.985634589333209,0 8.475911288334563,3.530288425003445 8.475911288334563,8.617161725352151 c0,3.454186891721502 -1.380650058833355,6.187260335641669 -4.027242345001566,7.857791831090166 c-1.265526619249718,0.8350600679045668 -3.4516251470833854,1.632275048987843 -5.254533020418453,1.632275048987843 h0.00041560808513948204 zM44.219902090941446,156.96379104056524 c-0.805448469000314,0 -1.5340094422498236,0.18963679374581568 -2.071390696335171,0.5693217408768088 c-1.4953578903318516,0.9111616011865098 -2.262570415499332,2.7334848035595307 -2.262570415499332,5.3904567141977555 c0,4.973338039884834 2.531053238499436,8.465781378066987 6.136453377084432,8.465781378066987 c1.0739312920004178,0 1.9176157048335631,-0.3039947734884126 2.6465922861682123,-0.9111616011865098 c1.111751627748111,-0.9115729608258716 1.6873688256662915,-2.7334848035595307 1.6873688256662915,-5.276921453733883 c0,-4.9346702337848205 -2.454581350833773,-8.237476778221158 -6.136453377084432,-8.237476778221158 zm0.6903250294166787,16.24747167587521 c-6.5200596396681725,0 -8.859517550918309,-4.7450334400390055 -8.859517550918309,-9.186483466228959 c0,-3.1127583910511616 1.265526619249718,-5.5044033343009895 3.7965798577491543,-7.212779916570775 c1.8029078733350672,-1.1007983949323255 3.950770457335902,-1.7079652226304254 5.868386162169465,-1.7079652226304254 c4.986050197418348,0 8.475911288334563,3.530288425003445 8.475911288334563,8.617161725352151 c0,3.454186891721502 -1.380650058833355,6.187260335641669 -4.027242345001566,7.857791831090166 c-1.2272906754168864,0.8350600679045668 -3.4133892032505533,1.632275048987843 -5.254117412333312,1.632275048987843 zm-43.837509604342124,-0.3796849471309932 c-0.07688749575080403,-0.11353526046387252 -0.15377499150160823,-0.455375120773574 -0.11512343958363669,-0.8729051547258576 c0,-0.3039947734884126 0.07688749575080403,-0.493631567234227 0.11512343958363669,-0.5693217408768088 c0.805448469000314,-0.114357979742596 1.2272906754168864,-0.22830459984583026 1.6873688256662915,-0.3418398603097027 c0.7672125251674825,-0.19004815338517772 1.0739312920004178,-0.6071668276980994 1.1121672358332502,-1.5561735157059 c0.11553904766877562,-2.277698323146594 0.11553904766877562,-6.605613088872677 0.07688749575080403,-9.604424859820602 v-0.07610153328194368 c0,-0.3414285006703412 0,-0.7593698942619856 -0.42184220641657283,-1.062953308111035 c-0.6138531417510135,-0.37927358749163087 -1.3424141150005222,-0.720702088161971 -2.3012219674173036,-0.9872631344684534 c-0.34495471066577,-0.1131239008245103 -0.5752015898330416,-0.30317205420968896 -0.5369656460002091,-0.5306539347767941 c0,-0.22789324020646856 0.23024687916727254,-0.493631567234227 0.7289765813346485,-0.5697331005161698 c1.265526619249718,-0.11394662010323414 4.563376774831497,-0.9107502415471482 5.867554945999186,-1.4804833420633192 c0.07688749575080403,0.07569017364258177 0.19201093533444044,0.3039947734884126 0.19201093533444044,0.6075781873374605 l-0.03823594383283246,0.4171186743129223 c-0.03865155191797183,0.4179413935916459 -0.07688749575080403,0.9115729608258716 -0.07688749575080403,1.4047931684207362 c0,0.15179170692452493 0.15377499150160823,0.26573832702776 0.3067187668329385,0.26573832702776 c0.07688749575080403,0 0.15377499150160823,-0.03784508682129086 0.23024687916727254,-0.07610153328194368 c2.454581350833773,-1.8980133760156015 4.678915822500271,-2.581281736995644 5.829319002166353,-2.581281736995644 c1.8797953690858713,0 3.337332923670028,0.8733165143652195 4.449500159503279,2.695228357098878 c0.07647188766566465,0.114357979742596 0.15335938341646896,0.15220306656388713 0.26848282300010545,0.15220306656388713 c0.07647188766566465,0 0.19117971916416104,-0.03784508682129086 0.22983127108213308,-0.11394662010323414 c2.262986023584472,-1.7083765822697865 4.525972047168945,-2.7334848035595307 6.021329937500794,-2.7334848035595307 c3.5667485866670225,0 5.6763752268350265,2.6195381834562963 5.6763752268350265,7.06098820964625 c0,1.2525901018568502 0,2.8848651508446927 -0.03823594383283246,4.365759852547373 c0,1.3282802754994316 -0.03823594383283246,2.5430252905349917 -0.03823594383283246,3.41634180490021 c0,0.1892254341064539 0.2680672149149658,0.7968036214439141 0.6899094213315398,0.9107502415471482 c0.5369656460002091,0.26573832702776 1.2659422273348584,0.3796849471309932 2.2247500797516393,0.5314766540555181 h0.03823594383283246 c0.07688749575080403,0.26573832702776 -0.07647188766566465,1.2525901018568502 -0.22983127108213308,1.4426382552420276 c-0.23024687916727254,0 -0.5756171979181821,0 -0.9588078524167825,-0.03784508682129086 a56.60914606067836,56.03047375819962 0 0 0 -2.9150751091683165,-0.07610153328194368 c-2.3776938550829687,0 -3.6049845304998542,0.03784508682129086 -4.79445487016905,0.11394662010323414 c-0.07605627958052526,-0.3035834138490508 -0.1147078314984971,-1.2147450150355594 0,-1.4426382552420276 c0.6907406375018201,-0.11353526046387252 1.0356953481675855,-0.22789324020646856 1.4579531626692985,-0.3414285006703412 c0.7672125251674825,-0.22789324020646856 0.9588078524167825,-0.5697331005161698 0.9974594043347532,-1.5565848753452616 c0,-0.7211134478013325 0.15294377533132947,-6.870940056261073 -0.07730310383594349,-8.35142339832439 c-0.22983127108213308,-1.5183284288846093 -1.380650058833355,-3.302395184796977 -3.9121189054179286,-3.302395184796977 c-0.9588078524167825,0 -2.4541657427486325,0.3796849471309932 -3.9117032973327914,1.4800719824239563 c-0.07647188766566465,0.07610153328194368 -0.15377499150160823,0.26573832702776 -0.15377499150160823,0.3796849471309932 v0.038256446460652786 c0.15377499150160823,0.7968036214439141 0.15377499150160823,1.7083765822697865 0.15377499150160823,3.1127583910511616 v2.46733511689241 c0,1.7083765822697865 -0.03865155191797183,3.3028065444363386 0,4.517140199832536 c0,0.8354714275439292 0.49872970216737733,1.0251082212897442 0.9205719085839493,1.1773112878536316 c0.23024687916727254,0.03743372718192912 0.3831906544986023,0.07569017364258177 0.5752015898330416,0.11353526046387252 c0.34495471066577,0.07610153328194368 0.6903250294166787,0.15220306656388713 1.2272906754168864,0.26573832702776 c0.07688749575080403,0.15220306656388713 0.07688749575080403,0.6454232741587522 -0.03823594383283246,1.062953308111035 c-0.03865155191797183,0.22789324020646856 -0.11553904766877562,0.3414285006703412 -0.15377499150160823,0.3796849471309932 c-1.3037625630825511,-0.03784508682129086 -2.6461766780830738,-0.07610153328194368 -4.602028326749469,-0.07610153328194368 c-0.5752015898330416,0 -1.5726609941677947,0.038256446460652786 -2.4163454070009402,0.038256446460652786 c-0.6907406375018201,0 -1.3424141150005222,0.03784508682129086 -1.7256047694991237,0.03784508682129086 c-0.03865155191797183,-0.07610153328194368 -0.11553904766877562,-0.3414285006703412 -0.11553904766877562,-0.7593698942619856 c0,-0.3414285006703412 0.07688749575080403,-0.6071668276980994 0.15377499150160823,-0.6832683609800425 c0.19159532724930095,-0.03784508682129086 0.34495471066577,-0.07569017364258177 0.5369656460002091,-0.07569017364258177 c0.4596625421642658,-0.07610153328194368 0.8436844128331464,-0.15220306656388713 1.2268750673317468,-0.22789324020646856 c0.6525046936689849,-0.18963679374581568 0.8823359647511174,-0.5314766540555181 0.9205719085839493,-1.3665367219600841 c0.11512343958363669,-1.8980133760156015 0.23024687916727254,-7.3263151770346475 -0.03823594383283246,-8.693263258634094 c-0.4600781502494053,-2.201596789864651 -1.7256047694991237,-3.302395184796977 -3.758759522001463,-3.302395184796977 c-1.1886391234989147,0 -2.6848282300010444,0.5693217408768088 -3.9117032973327914,1.480894701702681 c-0.19201093533444044,0.1513803472851633 -0.34537031875090934,0.5306539347767941 -0.34537031875090934,0.8724937950864956 v2.239853236325304 c0,2.7330734439201683 0,6.14982660845974 0.03823594383283246,7.630309950523059 c0.03865155191797183,0.45496376113421266 0.19159532724930095,0.9868517748290916 1.0739312920004178,1.1764885685749071 c0.19201093533444044,0.03784508682129086 0.49872970216737733,0.11394662010323414 0.8823359647511174,0.15220306656388713 l0.6899094213315398,0.11353526046387252 c0.07730310383594349,0.22789324020646856 0.03865155191797183,1.1390548413929784 -0.1147078314984971,1.4426382552420276 c-0.3836062625837421,0 -0.8436844128331464,-0.03784508682129086 -1.3810656669184942,-0.03784508682129086 c-0.805032860915174,-0.038256446460652786 -1.8407282090827595,-0.07610153328194368 -2.9911313887488413,-0.07610153328194368 c-1.3424141150005222,0 -2.3012219674173036,0.03784508682129086 -3.0684344925847866,0.07610153328194368 c-0.5369656460002091,-0.07610153328194368 -0.9588078524167825,-0.07610153328194368 -1.4188860026661865,-0.07610153328194368 z" fill="#b6b6b6" id="svg_3" filter="" class="" fill-opacity="1" stroke-dasharray="none"/><path d="M88.5563796868484,143.38028010559083 l-3.7830000684333096,-1.2930000000000001 s0.4620000083574388,-19.286 -6.460000116859419,-20.67 c-4.613000083447757,-5.353 0.7400000133863753,-227.013 17.35000031385618,-0.7390000000000019 c0,0 -5.722000103509226,2.8600000000000003 -6.737000121870264,7.752 c-1.1080000200433802,4.799 -0.3700000066931869,14.95 -0.3700000066931869,14.95 z" fill="#d2d2d2" id="svg_5" filter="" class="" fill-opacity="1"/><path d="M90.58737972358858,124.73928010559081 s33.130000599311536,-21.779 25.377000459062145,-67.09 c-7.474000135202369,-32.943 -25.100000454051305,-43.74 -27.03800048910913,-47.893 C86.80437965515523,6.803280105590822 84.7733796184151,1.6362801055908207 84.7733796184151,1.6362801055908207 l1.3850000250542251,91.634 c0,0.09300000000000044 -2.861000051754613,28.054 4.430000080137341,31.47 " fill="#499D4A" id="svg_7" filter="" class="" stroke="none"/><path d="M82.83637958337533,125.93828010559082 S51.736379020785876,104.71328010559083 53.582379054179455,67.34028010559082 C55.33537908589071,29.966280105590812 77.29837948319465,11.602280105590822 81.5433795599854,8.280280105590819 c2.7690000500903613,-2.9530000000000003 2.861000051754613,-4.061 3.0460000551012056,-7.014 c1.9380000350578257,4.1530000000000005 1.5690000283827286,62.106 1.8450000333754868,68.934 c0.8300000150144466,26.3 -1.4760000267003872,50.756 -3.5980000650867163,55.738 z" fill="#58AA50" id="svg_9" filter="" class=""/></g><defs><filter xmlns:inkscape="http://www.inkscape.org/namespaces/inkscape" id="f003" inkscape:label="Metal casting" x="0" y="0" width="1" height="1" inkscape:menu="Bevels" inkscape:menu-tooltip="Smooth drop-like bevel with metallic finish" color-interpolation-filters="sRGB">
            <feColorMatrix values=".37" type="saturate" in="SourceGraphic" result="result1"/>
            <feGaussianBlur stdDeviation="7" id="feGaussianBlur2470" in="SourceAlpha"/>
            <feSpecularLighting specularExponent="8" specularConstant="3.88" surfaceScale="10">
                <feDistantLight azimuth="225" elevation="17"/>
            </feSpecularLighting>
            <feComposite in2="result1" operator="atop"/>
        </filter></defs></svg>