<svg xmlns:dc="http://purl.org/dc/elements/1.1/" xmlns:cc="http://creativecommons.org/ns#" xmlns:rdf="http://www.w3.org/1999/02/22-rdf-syntax-ns#" xmlns:svg="http://www.w3.org/2000/svg" xmlns="http://www.w3.org/2000/svg" xmlns:sodipodi="http://sodipodi.sourceforge.net/DTD/sodipodi-0.dtd" xmlns:inkscape="http://www.inkscape.org/namespaces/inkscape" version="1.1" xml:space="preserve" width="166" height="170" sodipodi:docname="PVLG-Spring-FullColor-Transparent.svg" inkscape:version="0.92.3 (unknown)"><rect id="backgroundrect" width="100%" height="100%" x="0" y="0" fill="none" stroke="none" class="" style=""/><metadata id="metadata35"><rdf:RDF><cc:Work rdf:about=""><dc:format>image/svg+xml</dc:format><dc:type rdf:resource="http://purl.org/dc/dcmitype/StillImage"/><dc:title/></cc:Work></rdf:RDF></metadata><defs id="defs33"/><sodipodi:namedview pagecolor="#ffffff" bordercolor="#666666" borderopacity="1" objecttolerance="10" gridtolerance="10" guidetolerance="10" inkscape:pageopacity="0" inkscape:pageshadow="2" inkscape:window-width="1853" inkscape:window-height="1025" id="namedview31" showgrid="false" inkscape:zoom="6.8626921" inkscape:cx="122.54666" inkscape:cy="31.493334" inkscape:window-x="67" inkscape:window-y="27" inkscape:window-maximized="1" inkscape:current-layer="g37"/><g class="currentLayer" style=""><title>Layer 1</title><path d="m89.03973222507534,120.65828091191324 c0,1.9467999803395808 -1.5813333173637023,3.5297332976871245 -3.5306666310110324,3.5297332976871245 c-1.950666646967198,0 -3.527999964371296,-1.5829333173475444 -3.527999964371296,-3.5297332976871245 c0,-1.952133313619053 1.577333317404098,-3.5281332977032824 3.527999964371296,-3.5281332977032824 c1.9493333136473299,0 3.5306666310110324,1.5759999840842296 3.5306666310110324,3.5281332977032824 " style="fill-opacity: 1; fill-rule: nonzero; stroke: none;" id="path53" inkscape:connector-curvature="0" stroke-width="0" class="" fill-opacity="1" fill="#b6b6b6"/><path d="M126.17953428655522,76.85146000758539 C113.02610281954998,94.37667713894751 84.92849682364397,88.4610788881572 66.91418652414643,89.31195864511295 c0,0 -3.188991398427163,0.17742478892120814 -6.401030846357589,0.7061289676245229 c0,0 1.2145418243141786,-0.5181065951572049 2.763506327695331,-1.052120863697056 c12.65224937094396,-4.375355852417251 18.63141052688395,-5.254548556458933 26.31929080384047,-9.203447704684903 c14.444800122996867,-7.399327735626434 28.82068205875358,-23.51691913776709 31.745750694241398,-40.25997133427084 C115.84361389068931,55.60567759096841 99.12157609226199,69.46523802559807 83.89562786012021,75.09325536851776 C73.47406814306083,78.9388902165183 54.62754248747973,82.68148672556316 54.624830952244054,82.68306845445062 c0.00881248951595406,0.013331714908751001 -0.7510952602828523,-0.3945283767911735 -0.761715439955925,-0.40334086630712757 c-12.817065521019265,-6.235853158250861 -13.1868963310388,-33.99564705604536 10.09143030211557,-42.94393929505294 c10.206218627092614,-3.9260770599923442 19.968649320612567,-1.7697286638192828 31.00188619458702,-4.395850539573586 c11.767611000303958,-2.7978524406805882 25.396690939900978,-11.61847656234166 30.936357426391464,-23.150409958411256 c6.210319534781559,18.420362701040332 13.67065681321075,47.23923706963679 0.28674485117296633,65.06193221247975 zm0.22867280487552546,-70.7699398448519 c-1.5659115986041412,3.720226343350442 -3.4768660559483275,7.072587739727215 -5.6799884349368375,10.071093787847985 c-9.696901925324399,-9.952012198747786 -23.23153005421196,-16.15261539893483 -38.19174783325732,-16.15261539893483 C53.10840487169105,-0.000001448353344812859 29.169842004776,23.94127295379738 29.169842004776,53.36391583487148 C29.169842004776,68.78825806175712 35.753607729891314,82.699111704595 46.250209184598134,92.44983760434764 l1.1686490904503248,1.0353545374897795 c-1.9515596974984681,-1.5914452220734445 -2.2516588597071485,-4.457447581677408 -0.6699299722282203,-6.410769777079065 c1.5914226259464792,-1.9542034443532537 4.4600913285321955,-2.2569689495436847 6.412577467236185,-0.6743588131131611 c1.9577284401596353,1.5861351322369066 2.2559973160842337,4.459210079580599 0.6708790095607076,6.416057270788639 c-1.5792433135128916,1.9577510362866002 -4.453131721427287,2.253443953737303 -6.408216414732135,0.6734775641615647 l0.7952706884974423,0.7043664697213307 C57.50425541126464,102.01170507493526 69.47297194154805,106.73393407237666 82.53647082323653,106.73393407237666 C110.66503351308324,106.73393407237666 133.76256853439878,84.84393607601646 135.73972964374747,57.21497375334343 c1.46422902726621,-13.527849290798367 -2.5314441037752067,-30.705199047549904 -9.331522552316766,-51.13345359060992 " style="fill:#5fb832;fill-opacity:1;fill-rule:nonzero;stroke:none" id="path55" inkscape:connector-curvature="0" stroke-width="0" class=""/><g class="" id="svg_1" fill-opacity="1" fill="#b6b6b6"><path d="m1.3295997775125556,157.07654721079768 c-0.7514666590777255,-0.4057333292358977 -1.3295999865725836,-1.2745333204620262 -1.3295999865725836,-2.4323999754355836 c0,-1.5609333175697189 1.2139999877400094,-2.8265333047886276 2.8385333046674424,-2.8265333047886276 c0.5754666608551211,0 1.0983999889074352,0.16933333162326342 1.5005333181796887,0.4010666626163589 c2.9546666368279637,1.9687999801174056 6.0218666058528045,2.9530666368441216 8.795333244510678,2.9530666368441216 c3.008266636286666,0 4.743733285427134,-1.2743999871300395 4.743733285427134,-3.3019999666536335 v-0.11466666550866655 c0,-2.372399976041514 -3.237999967299959,-3.181199967873573 -6.828133264377113,-4.279599956781008 c-4.510399954450197,-1.273999987134079 -9.544266570280653,-3.1234666351232794 -9.544266570280653,-8.968266576097585 v-0.11719999881641611 c0,-5.786933274892025 4.801999951505375,-9.315066572595308 10.877599890148867,-9.315066572595308 c3.241066633935656,0 6.653066599478418,0.9270666573043697 9.604133236342737,2.486933308218194 c0.9863999900385054,0.5223999947243665 1.6770666497302402,1.4485333187048284 1.6770666497302402,2.6603999731330488 c0,1.6218666502876964 -1.2707999871663953,2.8395999713233366 -2.8906666374742898,2.8395999713233366 c-0.5817333274585025,0 -0.9285333239562241,-0.11613333216052155 -1.3863999859989695,-0.34893332980951197 c-2.4921333081656796,-1.2745333204620262 -5.036933282466154,-2.085866645601835 -7.177066594186626,-2.085866645601835 c-2.721333305851026,0 -4.283866623404586,1.2759999871138814 -4.283866623404586,3.0129333029062044 v0.11253333219687732 c0,2.2573333105368873 3.2978666333620423,3.1806666345456263 6.886399930455355,4.340133289503026 c4.455199955007652,1.3895999859666532 9.48906657083811,3.4134666321946163 9.48906657083811,8.909866576687357 v0.11719999881641611 c0,6.421866601813269 -4.978533283055926,9.600533236379093 -11.341599885463006,9.600533236379093 c-3.8739999608770974,0 -8.097999918219601,-1.2109333211043125 -11.630799882542421,-3.6437332965358573 " style="fill-opacity: 1; fill-rule: nonzero; stroke: none;" id="path41" inkscape:connector-curvature="0" stroke-width="0" class="" fill="#b6b6b6"/><path d="m51.424399271613254,144.92801400015043 v-0.11719999881641611 c0,-5.898933273760955 -3.993199959673316,-9.775999901273748 -8.735333245116609,-9.775999901273748 c-4.7442666187550815,0 -8.909999910019344,3.9343999602671276 -8.909999910019344,9.775999901273748 v0.11719999881641611 c0,5.843733274318411 4.165733291264263,9.78186656788117 8.909999910019344,9.78186656788117 c4.801999951505375,0 8.735333245116609,-3.7635999619920093 8.735333245116609,-9.78186656788117 m-24.474399752836973,-12.325999875521708 c0,-1.9635999801699195 1.5025333181594909,-3.5281332977032824 3.473866631584646,-3.5281332977032824 c1.9657333134817088,0 3.5281332977032824,1.5645333175333629 3.5281332977032824,3.5281332977032824 v2.0859999789338217 c2.25679997720894,-3.180799967877613 5.4381332784145,-5.727599942157889 10.415199894818572,-5.727599942157889 c7.173333260890994,0 14.175199856846936,5.667599942763819 14.175199856846936,15.850399839929361 v0.11719999881641611 c0,10.12666656439909 -6.943466596545714,15.853199839901084 -14.175199856846936,15.853199839901084 c-5.09119994858479,0 -8.273999916442206,-2.5485333075961054 -10.415199894818572,-5.3775999456924835 V166.21712045182187 c0,1.9744799800600443 -1.5623999842215741,3.479173298197722 -3.5281332977032824,3.479173298197722 c-1.9082666473953886,0 -3.473866631584646,-1.5046933181376776 -3.473866631584646,-3.479173298197722 V132.60201412462874 " style="fill-opacity: 1; fill-rule: nonzero; stroke: none;" id="path43" inkscape:connector-curvature="0" stroke-width="0" class="" fill="#b6b6b6"/><path d="m61.194399172947584,132.60614745792031 c0,-1.963466646837933 1.4999999848517414,-3.5281332977032824 3.4679999649772264,-3.5281332977032824 c1.9719999800850891,0 3.5319999643309004,1.5646666508653495 3.5319999643309004,3.5281332977032824 v1.6833333163336208 c0.3493333298054725,-2.6218666401888573 4.626666619942705,-5.211466614036904 7.694666588959467,-5.211466614036904 c2.1973333111428177,0 3.4719999649368307,1.4453333187371449 3.4719999649368307,3.4693332982970944 c0,1.8499999813171477 -1.2159999877198115,3.067199969024841 -2.778666638605359,3.3557332994443225 c-4.975999949748177,0.8682666578981818 -8.387999915290937,5.222399947259823 -8.387999915290937,11.246266553092429 v10.09386656473033 c0,1.9114666473630724 -1.559999984245811,3.4727999649287518 -3.5319999643309004,3.4727999649287518 c-1.9079999807314152,0 -3.4679999649772264,-1.5051999847992275 -3.4679999649772264,-3.4727999649287518 v-24.637066417860893 " style="fill-opacity: 1; fill-rule: nonzero; stroke: none;" id="path45" inkscape:connector-curvature="0" stroke-width="0" class="" fill="#b6b6b6"/><path d="m82.00906562941026,132.62028079111093 c0,-1.9666666468056164 1.5093333180908188,-3.531333297670966 3.473333298256699,-3.531333297670966 c1.9666666468056164,0 3.529333297691164,1.5646666508653495 3.529333297691164,3.531333297670966 V157.24894720905667 c0,1.9645333134938276 -1.5626666508855476,3.4670666316533185 -3.529333297691164,3.4670666316533185 c-1.9106666473711515,0 -3.473333298256699,-1.5025333181594909 -3.473333298256699,-3.4670666316533185 v-24.628666417945727 " style="fill-opacity: 1; fill-rule: nonzero; stroke: none;" id="path47" inkscape:connector-curvature="0" stroke-width="0" class="" fill="#b6b6b6"/><path d="m92.54106552304927,132.6337474576416 c0,-1.9666666468056164 1.5053333181312134,-3.5275999643753355 3.4693332982970944,-3.5275999643753355 c1.9693333134453528,0 3.5306666310110324,1.5609333175697189 3.5306666310110324,3.5275999643753355 v1.4365333188260145 c1.970666646765221,-2.8359999713596924 4.80133328484544,-4.981866616355597 9.545333236936548,-4.981866616355597 c6.88533326379946,0 10.87999989012463,4.6307999532342965 10.87999989012463,11.688666548624704 V157.24468054243306 c0,1.9661333134776693 -1.5066666514510825,3.4723999649327912 -3.473333298256699,3.4723999649327912 c-1.9666666468056164,0 -3.527999964371296,-1.5062666514551222 -3.527999964371296,-3.4723999649327912 v-14.32599985532403 c0,-4.742133285443292 -2.3719999760455535,-7.463599924626304 -6.538666600633724,-7.463599924626304 c-4.049333292439767,0 -6.88533326379946,2.8349333047037977 -6.88533326379946,7.58293325675451 v14.206666523195826 c0,1.9661333134776693 -1.5613333175656794,3.4723999649327912 -3.5306666310110324,3.4723999649327912 c-1.9079999807314152,0 -3.4693332982970944,-1.5062666514551222 -3.4693332982970944,-3.4723999649327912 V132.6337474576416 " style="fill-opacity: 1; fill-rule: nonzero; stroke: none;" id="path49" inkscape:connector-curvature="0" stroke-width="0" class="" fill="#b6b6b6"/><path d="m138.47173172586952,154.64574723534594 c-4.806666618124913,0 -8.73733324509641,-3.761999962008167 -8.73733324509641,-9.78013323456534 v-0.11359999885277189 c0,-5.900533273744797 3.989333293045698,-9.77759990125759 8.73733324509641,-9.77759990125759 c4.745333285410976,0 8.910666576679278,3.935466626923022 8.910666576679278,9.77759990125759 v0.11359999885277189 c0,5.845199940970265 -4.165333291268302,9.78013323456534 -8.910666576679278,9.78013323456534 M150.73173160205778,129.01348082753543 c-1.9639999801658807,0 -3.5266666310514276,1.5655999841892574 -3.5266666310514276,3.5297332976871245 v2.0822666456381906 c-2.2586666438567558,-3.180799967877613 -5.437333278422579,-5.726133275506034 -10.41066656153102,-5.726133275506034 c-7.178666594170468,0 -14.177333190158725,5.6677332760958095 -14.177333190158725,15.852666506573136 v0.11359999885277189 c0,10.126533231067103 6.9413332632339255,15.851466506585256 14.177333190158725,15.851466506585256 c5.061333282219743,0 8.235999916825962,-2.51813330790311 10.378666561854184,-5.333333279472859 c-0.3506666631253407,5.501599944440227 -3.7186666291124504,8.40629324843953 -9.62666656944851,8.40629324843953 c-3.5266666310514276,0 -6.594666600068189,-0.8708266578723286 -9.375999905313284,-2.4358933087336387 c-0.34666666316573613,-0.16933333162326342 -0.7453333258063314,-0.28386666379994346 -1.267999987194672,-0.28386666379994346 c-1.6199999836398815,0 -2.9546666368279637,1.3322666532123204 -2.9546666368279637,2.8895466374856 c0,1.3317733198839687 0.7533333257255409,2.315106643286777 1.9719999800850891,2.7781333052774118 c3.697333295994559,1.7942666485466563 7.513333257457389,2.7203066391947273 11.797333214193962,2.7203066391947273 c5.499999944456385,0 9.782666567873092,-1.3296933199049743 12.559999873158581,-4.108333291843937 c2.539999974348949,-2.547919974268966 3.929333293651628,-6.3619199357519935 3.929333293651628,-11.514053217054762 v-21.29266645163545 c0,-1.9641333134978671 -1.503999984811346,-3.5297332976871245 -3.474666631576567,-3.5297332976871245 " style="fill-opacity: 1; fill-rule: nonzero; stroke: none;" id="path51" inkscape:connector-curvature="0" stroke-width="0" class="" fill="#b6b6b6"/><path d="m162.405064817504,131.21868080526545 h-1.099999988891277 v1.456266651960064 h1.099999988891277 c0.35599999640481345,0 0.7453333258063314,-0.28746666376358737 0.7453333258063314,-0.7109333261537323 c0,-0.45786666204274523 -0.38933332940151866,-0.7453333258063314 -0.7453333258063314,-0.7453333258063314 zm0.6786666598129212,3.6051999635916654 l-1.0679999892144398,-1.6249333169233937 h-0.7106666594897586 v1.6249333169233937 h-0.5746666608632005 v-4.113466625125429 h1.6746666497544775 c0.6946666596513401,0 1.3386666531476874,0.49213332836335805 1.3386666531476874,1.2535999873400951 c0,0.9134666574417135 -0.8146666584394797,1.2186666543595481 -1.050666656056153,1.2186666543595481 l1.1013333222111452,1.641199983425786 zm-0.9826666567428741,-5.111999948374735 c-1.6933333162326325,0 -3.0479999692187385,1.3541333196581589 -3.0479999692187385,3.0479999692187385 c0,1.6749333164184517 1.354666652986106,3.046799969230857 3.0479999692187385,3.046799969230857 c1.6746666497544775,0 3.0466666358988705,-1.3718666528124066 3.0466666358988705,-3.046799969230857 c0,-1.6938666495605805 -1.3719999861443928,-3.0479999692187385 -3.0466666358988705,-3.0479999692187385 zm0,6.637066599639998 c-1.9813333133241668,0 -3.589333297085234,-1.6089333170849747 -3.589333297085234,-3.58906663042126 c0,-1.9990666464784141 1.6079999837610668,-3.5901332970771542 3.589333297085234,-3.5901332970771542 c1.9973333131625854,0 3.589333297085234,1.5910666505987408 3.589333297085234,3.5901332970771542 c0,1.9801333133362855 -1.5919999839226482,3.58906663042126 -3.589333297085234,3.58906663042126 " style="fill-opacity: 1; fill-rule: nonzero; stroke: none;" id="path57" inkscape:connector-curvature="0" stroke-width="0" class="" fill="#b6b6b6"/></g></g></svg>