<svg xmlns="http://www.w3.org/2000/svg" width="114" height="154" style=""><rect id="backgroundrect" width="100%" height="100%" x="0" y="0" fill="none" stroke="none" class="" style=""/>
 
 
 
 
<g class="currentLayer" style=""><title>Layer 1</title><path fill="#f05133" d="M111.77988555908203,51.88749957275391 L62.03488555908203,2.1485995727539056 c-2.8622,-2.8648000000000002 -7.5082,-2.8648000000000002 -10.374,0 l-10.329,10.33 l13.102,13.102 c3.0459,-1.0284 6.5371,-0.33888000000000024 8.9639,2.0884 c2.4394,2.4424 3.124,5.9634 2.0698,9.0195 l12.628,12.628 c3.0551,-1.0528 6.58,-0.3726200000000001 9.0195,2.0712 c3.4106,3.4096 3.4106,8.9345 0,12.345 c-3.4111000000000002,3.4116 -8.936,3.4116 -12.349,0 c-2.5645,-2.5665 -3.1988,-6.3345 -1.8999000000000001,-9.4942 l-11.777,-11.777 l-0.0010000000000000005,30.991 c0.8315,0.4116200000000001 1.6162,0.9610000000000002 2.3091,1.6509 c3.4096,3.4092000000000002 3.4096,8.9331 0,12.348 c-3.4106,3.4091 -8.938,3.4091 -12.345,0 c-3.4101,-3.4146 -3.4101,-8.9385 0,-12.348 c0.8427500000000002,-0.84125 1.8179,-1.478 2.8584,-1.9048 v-31.279 c-1.041,-0.4250000000000001 -2.015,-1.057 -2.859,-1.905 c-2.583,-2.581 -3.2051,-6.372 -1.8804,-9.5439 l-12.916,-12.918 l-34.106,34.105 c-2.8657000000000004,2.867 -2.8657000000000004,7.513 0,10.378 l49.742,49.739 c2.8638000000000003,2.8648000000000002 7.5082,2.8648000000000002 10.376,0 l49.512,-49.504 c2.8648000000000002,-2.8662 2.8648000000000002,-7.5136 0,-10.379 " id="svg_4" class=""/><g class="" id="svg_5" fill-opacity="1" fill="#b6b6b6"><path fill="#b6b6b6" d="m43.99828924995978,131.39828153615048 c-1.9038763001071797,0 -3.32168359661139,0.9348875619690882 -3.32168359661139,3.1848971623513926 c0,1.6952292716626862 0.9344422107877761,2.8720061466813136 3.2192528249097174,2.8720061466813136 c1.9364823687389225,0 3.251699839548136,-1.1410215373190384 3.251699839548136,-2.942021714543233 c0,-2.0409808423538287 -1.1769995506092843,-3.1147543512948115 -3.149269067846464,-3.1147543512948115 zm-3.8077526002143602,15.886312853358824 c-0.4505045306953699,0.5529353023970427 -0.8994503322561493,1.140417132144401 -0.8994503322561493,1.8337652998492646 c0,1.3831971475565645 1.7639087859806701,1.79947325888827 4.1869373203025395,1.79947325888827 c2.007261395768806,0 4.741399541035507,-0.14056555714141378 4.741399541035507,-2.0067842337888293 c0,-1.1092107386539223 -1.3153765248025375,-1.1778902529719073 -2.9774907550548373,-1.2821024293988268 l-5.051554828020388,-0.34435189554987883 zm10.243395278153933,-15.78165532575059 c0.621901113903014,0.7961924797891827 1.2803846462709105,1.9038126785098495 1.2803846462709105,3.495688665309574 c0,3.8411539388127305 -3.0108920936532084,6.090495512423068 -7.370243942720676,6.090495512423068 c-1.108606333479285,0 -2.1122370313636885,-0.13809703916500082 -2.734519874850683,-0.3108296759165797 l-1.1423894016616383,1.833828921446595 l3.391031137701343,0.20716782630656685 c5.9874285247480925,0.3814750975920689 9.516200420669387,0.5548439503169497 9.516200420669387,5.1558942476419665 c0,3.980803344952589 -3.494416233362969,6.228872486616322 -9.516200420669387,6.228872486616322 c-6.263546257161298,0 -8.651264804964889,-1.5920986623903808 -8.651264804964889,-4.325632402482444 c0,-1.5579338646240457 0.6922666005502499,-2.386605169850312 1.9034945705231987,-3.53036243585455 c-1.1423894016616383,-0.48288792373645806 -1.5225284457097716,-1.347569053051635 -1.5225284457097716,-2.282361182624727 c0,-0.7618686280295238 0.3801390440481335,-1.4538171205931216 1.0040124274683844,-2.1117916801823764 c0.6226963838696417,-0.6568929924346414 1.3145812548359095,-1.3153129032052082 2.1452566403780784,-2.076418072066768 c-1.6955155688506716,-0.830389088354183 -2.9762819447055633,-2.6299895904371122 -2.9762819447055633,-5.191204234160245 c0,-3.9792128050193334 2.6303713200210943,-6.712078518339431 7.9240699474803415,-6.712078518339431 c1.4883636479434372,0 2.388609250166214,0.1369836612117217 3.1845790543647405,0.3459106246844697 h6.748660936804314 v2.940781093395294 l-3.1842609463780898,0.2423187588315199 " id="svg_1" class=""/><path fill="#b6b6b6" d="m59.70964271066043,125.21426227565195 c-1.9730647872038065,0 -3.1146589188988165,-1.1430256176349403 -3.1146589188988165,-3.1163130804294026 c0,-1.9708062204985834 1.1416259424936752,-3.044420675446241 3.1146589188988165,-3.044420675446241 c2.007261395768806,0 3.149269067846464,1.0736144549476576 3.149269067846464,3.044420675446241 c0,1.9732556519957969 -1.1420076720776569,3.1163130804294026 -3.149269067846464,3.1163130804294026 zm-4.464963700635651,20.796627735306096 l0,-2.7325157945347813 l1.765499325913926,-0.24152348886489208 c0.48473295005903455,-0.07022233805324321 0.5535078967730148,-0.17320979873155545 0.5535078967730148,-0.6935390324968551 v-10.174047737063981 c0,-0.37988455765881296 -0.10338509566162633,-0.6231735458496183 -0.4505045306953699,-0.7261769119272629 l-1.868502691991571,-0.658101802783916 l0.38052077363211545,-2.802086011215389 h7.1641099673707265 v14.360666949379869 c0,0.5547167071222892 0.033401338598371653,0.6233325998429433 0.5538896263569967,0.6935390324968551 l1.7651175963299446,0.24152348886489208 v2.7325157945347813 h-9.863892450079103 " id="svg_2" class=""/><path fill="#b6b6b6" d="m78.79294082986343,144.66974673923676 c-1.4887453775274186,0.7258588039406123 -3.668421302061152,1.383483444744551 -5.6419632512449365,1.383483444744551 c-4.117907887199238,0 -5.674728373870003,-1.6595057447617603 -5.674728373870003,-5.57166138619503 v-9.066077619557998 c0,-0.2072091803448316 0,-0.3462287326711207 -0.27794685333644986,-0.3462287326711207 h-2.422010588764586 v-3.0797942835618497 c3.0462657017688177,-0.34699219183908353 4.256602969379144,-1.8699659887301665 4.6373782294005785,-5.6419632512449365 h3.2879641500263674 v4.9157227177203415 c0,0.2413644348715665 0,0.3459106246844697 0.2771515833698218,0.3459106246844697 h4.87914029925546 v3.4600605708046452 h-5.156212355628617 v8.270489544943452 c0,2.042062409508443 0.48511467964301597,2.837332376136337 2.3527902908692937,2.837332376136337 c0.9702293592860316,0 1.9726512468211599,-0.24152348886489208 2.8033266323633286,-0.5532534103836946 l0.9352374807544042,3.0462338909701523 " id="svg_3" class=""/></g></g></svg>