<svg xmlns="http://www.w3.org/2000/svg" xmlns:xlink="http://www.w3.org/1999/xlink" width="331" height="331" stroke="#000" stroke-linecap="round" stroke-linejoin="round" fill="#fff" fill-rule="evenodd" style=""><rect id="backgroundrect" width="100%" height="100%" x="0" y="0" fill="none" stroke="none" class="" style=""/>
    <style>
        <![CDATA[.B{opacity:.35}.C{fill:#be202e}]]>
    </style>
    <defs>
        <linearGradient x1="12.62%" y1="72.76%" x2="116.77%" y2="-34.86%" id="A">
            <stop offset="0%" stop-color="#f69923"/>
            <stop offset="31.230000000000004%" stop-color="#f79a23"/>
            <stop offset="83.829999%" stop-color="#e97826"/>
        </linearGradient>
        <linearGradient x1="224.08%" y1="426.40%" x2="63.13%" y2="11.12%" id="B">
            <stop offset="32.33%" stop-color="#9e2064"/>
            <stop offset="63.020003%" stop-color="#c92037"/>
            <stop offset="75.139999%" stop-color="#cd2335"/>
            <stop offset="100%" stop-color="#e97826"/>
        </linearGradient>
        <linearGradient x1="87.71%" y1="174.81%" x2="13.17%" y2="-95.86%" id="C">
            <stop offset="0%" stop-color="#282662"/>
            <stop offset="9.54839%" stop-color="#662e8d"/>
            <stop offset="78.820002%" stop-color="#9f2064"/>
            <stop offset="94.870001%" stop-color="#cd2032"/>
        </linearGradient>
        <linearGradient x1="94.38%" y1="187.41%" x2="14.85%" y2="-56.16%" id="D">
            <stop offset="32.33%" stop-color="#9e2064"/>
            <stop offset="63.020003%" stop-color="#c92037"/>
            <stop offset="75.139999%" stop-color="#cd2335"/>
            <stop offset="100%" stop-color="#e97826"/>
        </linearGradient>
        <linearGradient x1="51.27%" y1="84.65%" x2="17.12%" y2="-54.87%" id="E">
            <stop offset="0%" stop-color="#282662"/>
            <stop offset="9.54839%" stop-color="#662e8d"/>
            <stop offset="78.820002%" stop-color="#9f2064"/>
            <stop offset="94.870001%" stop-color="#cd2032"/>
        </linearGradient>
        <linearGradient x1="103.19%" y1="169.84%" x2="26.96%" y2="-37.53%" id="F">
            <stop offset="32.33%" stop-color="#9e2064"/>
            <stop offset="63.020003%" stop-color="#c92037"/>
            <stop offset="75.139999%" stop-color="#cd2335"/>
            <stop offset="100%" stop-color="#e97826"/>
        </linearGradient>
        <linearGradient x1="179.26%" y1="364.23%" x2="68.49%" y2="22.72%" id="G">
            <stop offset="32.33%" stop-color="#9e2064"/>
            <stop offset="63.020003%" stop-color="#c92037"/>
            <stop offset="75.139999%" stop-color="#cd2335"/>
            <stop offset="100%" stop-color="#e97826"/>
        </linearGradient>
        <linearGradient x1="2177.44%" y1="14869.24%" x2="-911.31%" y2="-9029.77%" id="H">
            <stop offset="32.33%" stop-color="#9e2064"/>
            <stop offset="63.020003%" stop-color="#c92037"/>
            <stop offset="75.139999%" stop-color="#cd2335"/>
            <stop offset="100%" stop-color="#e97826"/>
        </linearGradient>
        <linearGradient x1="7066.00%" y1="53447.40%" x2="-2044.28%" y2="-26084.49%" id="I">
            <stop offset="32.33%" stop-color="#9e2064"/>
            <stop offset="63.020003%" stop-color="#c92037"/>
            <stop offset="75.139999%" stop-color="#cd2335"/>
            <stop offset="100%" stop-color="#e97826"/>
        </linearGradient>
        <linearGradient x1="16.13%" y1="60.57%" x2="164.05%" y2="35.81%" id="J">
            <stop offset="0%" stop-color="#f69923"/>
            <stop offset="31.230000000000004%" stop-color="#f79a23"/>
            <stop offset="83.829999%" stop-color="#e97826"/>
        </linearGradient>
        <linearGradient x1="-260.75%" y1="389.72%" x2="74.24%" y2="11.62%" id="K">
            <stop offset="32.33%" stop-color="#9e2064"/>
            <stop offset="63.020003%" stop-color="#c92037"/>
            <stop offset="75.139999%" stop-color="#cd2335"/>
            <stop offset="100%" stop-color="#e97826"/>
        </linearGradient>
        <linearGradient x1="-30.09%" y1="201.73%" x2="137.36%" y2="-154.20%" id="L">
            <stop offset="0%" stop-color="#282662"/>
            <stop offset="9.54839%" stop-color="#662e8d"/>
            <stop offset="78.820002%" stop-color="#9f2064"/>
            <stop offset="94.870001%" stop-color="#cd2032"/>
        </linearGradient>
        <linearGradient x1="-86.08%" y1="167.95%" x2="151.47%" y2="-43.04%" id="M">
            <stop offset="32.33%" stop-color="#9e2064"/>
            <stop offset="63.020003%" stop-color="#c92037"/>
            <stop offset="75.139999%" stop-color="#cd2335"/>
            <stop offset="100%" stop-color="#e97826"/>
        </linearGradient>
        <linearGradient x1="-2.65%" y1="76.47%" x2="164.65%" y2="-39.08%" id="N">
            <stop offset="0%" stop-color="#282662"/>
            <stop offset="9.54839%" stop-color="#662e8d"/>
            <stop offset="78.820002%" stop-color="#9f2064"/>
            <stop offset="94.870001%" stop-color="#cd2032"/>
        </linearGradient>
        <linearGradient x1="-40.88%" y1="195.34%" x2="114.95%" y2="-57.48%" id="O">
            <stop offset="32.33%" stop-color="#9e2064"/>
            <stop offset="63.020003%" stop-color="#c92037"/>
            <stop offset="75.139999%" stop-color="#cd2335"/>
            <stop offset="100%" stop-color="#e97826"/>
        </linearGradient>
        <linearGradient x1="-155.05%" y1="496.15%" x2="65.16%" y2="12.07%" id="P">
            <stop offset="32.33%" stop-color="#9e2064"/>
            <stop offset="63.020003%" stop-color="#c92037"/>
            <stop offset="75.139999%" stop-color="#cd2335"/>
            <stop offset="100%" stop-color="#e97826"/>
        </linearGradient>
        <linearGradient x1="-5672.36%" y1="393558.20%" x2="3493.88%" y2="-241772.04%" id="Q">
            <stop offset="32.33%" stop-color="#9e2064"/>
            <stop offset="63.020003%" stop-color="#c92037"/>
            <stop offset="75.139999%" stop-color="#cd2335"/>
            <stop offset="100%" stop-color="#e97826"/>
        </linearGradient>
        <linearGradient x1="-19374.04%" y1="662188.49%" x2="9293.15%" y2="-325120.45%" id="R">
            <stop offset="32.33%" stop-color="#9e2064"/>
            <stop offset="63.020003%" stop-color="#c92037"/>
            <stop offset="75.139999%" stop-color="#cd2335"/>
            <stop offset="100%" stop-color="#e97826"/>
        </linearGradient>
        <path id="S" d="M165.8267 44.092l-.5035.5167c.0886-.0798.1797-.176.2613-.2654.0886-.0797.1702-.17.2422-.2513z"/>
        <path id="T" d="M164.5486 41.308c-.0096.007-.0096.007 0 0 .0287-.02.0503-.0517.08-.0727l.3142-.3336-.3932.4063z"/>
        <path id="U" d="M164.54 41.3148c.0287-.02.0504-.0516.0886-.0797-.0287.02-.0504.0517-.0886.0797h0z"/>
        <path id="V" d="M187.782 49.353l-.8158.016c.1347.0062.2846.001.4212-.006.1347.0062.2713-.001.3946-.01z"/>
        <path id="W" d="M188.965 46.0962c-.0132-.002-.0132-.002 0 0 .04.006.0816-.0015.1215.0043l.518-.019-.6395.0146z"/>
        <path id="X" d="M188.9516 46.0943c.0398.0058.0816-.0016.1347.0062-.04-.0058-.0816.0016-.1347-.0062h0z"/>
    </defs>
    
<g class="currentLayer" style=""><title>Layer 1</title><g fill-rule="nonzero" stroke="none" id="svg_1" class="selected">
        <path d="M154.9161475719452,140.30151599121095 c-0.45230000000000015,1.0676 -0.8084,3.3886000000000003 -0.971,6.4945 l3.49,1.6895000000000002 c-0.05770000000000002,-2.2233 0.02560000000000001,-4.3147 0.24930000000000008,-6.215 l0.02600000000000002,-0.2250000000000001 c-0.003200000000000003,0.07600000000000004 -0.02300000000000002,0.14930000000000004 -0.02600000000000002,0.2250000000000001 c-0.07050000000000002,0.6256000000000006 -0.21900000000000008,2.5882 -0.01600000000000001,6.132 c1.445,-1.1782 3.5247,-3.1754000000000002 5.1697,-4.883 c-1.7376,-3.5502000000000002 -3.8994,-4.1703 -3.8994,-4.1703 s-3.0922,-1.2466 -4.0235,0.9522 z" fill="url(#A)" id="svg_2"/>
        <g class="C" id="svg_3">
            <use xlink:href="#S" id="svg_4" y="123.01951599121094" x="1.1897475719451904"/>
            <use xlink:href="#S" class="B" id="svg_5" y="123.01951599121094" x="1.1897475719451904"/>
            <use xlink:href="#T" id="svg_6" y="123.01951599121094" x="1.1897475719451904"/>
            <use xlink:href="#T" class="B" id="svg_7" y="123.01951599121094" x="1.1897475719451904"/>
        </g>
        <path d="M158.3493475719452,158.79021599121094 l-0.4413000000000003,-3.4276 l-0.32020000000000015,-3.443 l-0.012200000000000008,-0.1970000000000001 l-0.1562000000000001,-3.2396 l-3.484,-1.6800000000000006 l-0.03280000000000003,0.6568000000000006 l-0.06800000000000005,2.6537 l0.02050000000000001,3.2952 l0.125,3.2772 l0.1975000000000001,2.915 l0.008400000000000005,0.11160000000000005 l4.6605,2.361 l-0.4973000000000003,-3.2835 z" fill="url(#B)" id="svg_8"/>
        <path d="M165.23494757194518,186.35251599121094 l0.8026000000000003,2.677 c0.007000000000000006,0.00950000000000001 0.004400000000000003,0.02600000000000002 0.01150000000000001,0.0357 l0.11940000000000005,0.3830000000000002 l0.7507000000000005,2.406 c0.7537000000000005,-0.15580000000000008 1.6942000000000006,0.1836 2.6764,0.6398000000000005 c-0.6303000000000003,-0.7585000000000003 -1.5028000000000001,-1.2657 -2.5453,-1.3833000000000002 c2.8544,-1.9037000000000002 4.7325,-4.356 4.4686,-7.2813 l-0.11500000000000005,-0.7983 c-0.04500000000000003,1.1216 -0.5088,1.9328 -1.8747000000000007,2.8177000000000003 l-0.009600000000000008,0.007000000000000006 l0.009600000000000008,-0.007000000000000006 c1.2902,-2.27 1.6454,-3.8116000000000003 1.4928000000000001,-5.8034 l-0.18350000000000008,-1.513 c-0.4127,2.9657 -2.0053,4.885 -4.3346,6.0208 l-1.413,1.302 l0.14420000000000008,0.4973000000000003 z" fill="url(#C)" id="svg_9"/>
        <path d="M163.4187475719452,182.37451599121093 l-0.8927000000000006,-3.361 l-0.8270000000000003,-3.2917 l-0.7932,-3.3458 l-0.7544000000000003,-3.4332000000000003 l-0.6906000000000007,-3.4065 l-0.2270000000000001,-1.2312 l-0.37200000000000016,-2.1103 c-0.01150000000000001,-0.0357 -0.013400000000000006,-0.07840000000000004 -0.025000000000000015,-0.11400000000000005 l-4.6344,-2.3656 c0.006400000000000006,0.06900000000000005 0.0198,0.14730000000000001 0.01670000000000001,0.22320000000000012 l0.30850000000000016,3.1866 l0.42160000000000014,3.2803 l0.43850000000000017,2.7824 l0.101,0.5585 l0.6893000000000004,3.3044000000000002 l0.8742000000000003,3.316 l0.6014,1.9420000000000002 l0.551,1.5524 l1.4628,3.5164 l4.6842000000000015,2.3733 l-0.7343000000000003,-2.624 l-0.19860000000000008,-0.7517000000000005 z" fill="url(#D)" id="svg_10"/>
        <path d="M159.7370475719452,183.53201599121093 c0.6452000000000003,1.3802 1.3574000000000002,2.7112 2.1555,3.979 c0.02800000000000001,0.03830000000000002 0.05360000000000004,0.09300000000000008 0.08170000000000006,0.1313 c-1.2946,-0.52 -3.5887000000000002,-0.279 -3.572,-0.2765 c2.3685,0.8215 4.4455,1.8275000000000001 5.7558,3.352 c-0.5207,0.5734 -1.4955,1.0093 -2.7207,1.3643 c1.6940000000000006,0.1836 2.6390000000000002,-0.11260000000000005 2.9844999999999997,-0.2632 c-0.8854000000000003,0.7380000000000003 -1.381,2.0874 -1.8158,3.5394 c0.9966,-1.6288 1.9849999999999999,-2.7074 2.9477,-3.1197 c1.4058000000000002,4.6617 3.0994,9.7153 4.9755,15.0175 c0.3173000000000003,-0.40940000000000015 0.35280000000000017,-0.8622000000000003 0.22000000000000008,-1.3237 c-0.3460000000000003,-0.9525 -2.577,-7.2595 -5.1238,-15.821 l-0.2177000000000001,-0.7376000000000005 c-0.02300000000000002,-0.0714 -0.04000000000000002,-0.1333 -0.062000000000000034,-0.20470000000000008 l-0.797,-2.7694 l-0.1806,-0.6470000000000004 l-0.007000000000000006,-0.009600000000000008 l-4.6843,-2.3732 c0.01600000000000001,0.06180000000000004 0.03450000000000003,0.10700000000000004 0.06000000000000003,0.1620000000000001 z" fill="url(#E)" id="svg_11"/>
        <path d="M159.3913475719452,162.17411599121095 l0.08300000000000005,0.454 l0.2677,1.407 l0.30870000000000014,1.5830000000000002 l0.16220000000000012,0.8225 l0.5405,2.5604 l0.7600000000000003,3.3408 l0.8212,3.384 l0.8780000000000003,3.4013 l0.8684000000000003,3.1877 c0.010000000000000005,0.05220000000000003 0.03450000000000003,0.10700000000000004 0.04340000000000002,0.15940000000000012 l0.9430000000000003,3.3094 c0.004500000000000003,0.02600000000000002 0.010000000000000005,0.052300000000000034 0.02300000000000002,0.0714 l1.413,-1.302 c-0.0357,0.01150000000000001 -0.06440000000000004,0.03250000000000002 -0.10970000000000005,0.05000000000000003 c1.677,-1.5838 3.114,-4.757 3.4426,-7.617 c0.15120000000000008,-1.3173000000000001 0.1373,-2.7194000000000003 -0.04380000000000003,-4.249 c-0.1305,-1.1400000000000001 -0.36250000000000016,-2.338 -0.6810000000000006,-3.6340000000000003 l-1.04,-3.5620000000000003 c-0.25930000000000014,0.5287000000000003 -0.6277000000000005,1.0492 -1.0788,1.557 l-0.24480000000000007,0.268 l-0.26130000000000014,0.26530000000000015 c1.2368000000000001,-1.9228 1.3840000000000001,-3.9875 1.017,-6.13 c-0.2250000000000001,0.6358000000000005 -0.6663000000000003,1.5777 -1.3986,2.424 c-0.09360000000000009,0.11300000000000004 -0.20400000000000001,0.22330000000000008 -0.31420000000000015,0.3336000000000002 c-0.02870000000000001,0.02100000000000001 -0.05030000000000003,0.05170000000000003 -0.08860000000000008,0.07980000000000002 h0 c0.41040000000000015,-0.6837000000000006 0.7136000000000003,-1.3330000000000002 0.9078,-1.9904 c0.04650000000000004,-0.137 0.07640000000000002,-0.2767 0.1063,-0.41640000000000016 c0.04970000000000002,-0.21300000000000008 0.08270000000000007,-0.42850000000000016 0.11580000000000004,-0.6440000000000003 l0.04700000000000002,-0.41700000000000015 c0.02470000000000001,-0.3270000000000002 0.02580000000000001,-0.6663000000000003 -0.006200000000000004,-1.0106 l-0.02760000000000002,-0.31820000000000015 l-0.07600000000000004,-0.4444000000000003 l-0.3642,-1.7188 l-0.18500000000000008,-0.6733000000000003 c-0.03000000000000002,-0.08100000000000004 -0.04340000000000002,-0.15940000000000012 -0.07350000000000002,-0.2403 l-0.2048,-0.6000000000000003 l-0.2572,-0.5900000000000003 c-0.02230000000000002,0.09000000000000007 -0.054000000000000034,0.18680000000000008 -0.10250000000000002,0.2812 c-0.29200000000000015,0.6850000000000006 -0.9704999999999997,1.6244 -1.5894,2.2846 l1.3028,-1.1916 l-1.3028,1.1916 c-0.00950000000000001,0.007000000000000006 -0.01900000000000001,0.014000000000000005 -0.02170000000000001,0.03060000000000002 l-0.19180000000000008,0.19960000000000008 c0.0025000000000000014,-0.01650000000000001 0.02170000000000001,-0.03060000000000002 0.02420000000000001,-0.04720000000000001 l-4.452,4.0768 c0.03760000000000002,0.03120000000000002 0.04200000000000002,0.05740000000000002 0.03960000000000003,0.07400000000000002 z" fill="url(#F)" id="svg_12"/>
        <path d="M157.6693475719452,148.40251599121095 l0.2507,3.2880000000000003 c0.006400000000000006,0.06900000000000005 0.005700000000000003,0.1282 0.02170000000000001,0.2 l0.3960000000000003,3.446 l0.49100000000000016,3.4353000000000002 l0.556,3.3434 l4.452,-4.0768 c0.9283,-1.6817000000000006 1.1313,-2.728 1.1187,-4.0282 l-0.05270000000000003,-1.094 c-0.07120000000000004,-1.1394 -0.20800000000000007,-2.3482000000000003 -0.40240000000000015,-3.515 l-0.6625000000000003,-3.1477 l-0.51,-1.597 l-0.49150000000000016,-1.1105 l-5.167,4.8664000000000005 z" fill="url(#G)" id="svg_13"/>
        <g class="C" id="svg_14">
            <path d="M166.7812475719452,167.37221599121094 l-0.26130000000000014,0.26530000000000015 l0.26130000000000014,-0.26530000000000015 z" id="svg_15"/>
            <path d="M166.7812475719452,167.37221599121094 l-0.26130000000000014,0.26530000000000015 l0.26130000000000014,-0.26530000000000015 z" class="B" id="svg_16"/>
        </g>
        <path d="M166.7812475719452,167.37221599121094 l-0.26130000000000014,0.26530000000000015 l0.26130000000000014,-0.26530000000000015 z" fill="url(#H)" id="svg_17"/>
        <g class="C" id="svg_18">
            <use xlink:href="#U" id="svg_19" y="123.01951599121094" x="1.1897475719451904"/>
            <use xlink:href="#U" class="B" id="svg_20" y="123.01951599121094" x="1.1897475719451904"/>
        </g>
        <use xlink:href="#U" fill="url(#I)" id="svg_21" y="123.01951599121094" x="1.1897475719451904"/>
        <g class="C" id="svg_22">
            <path d="M165.73824757194518,164.32751599121093 h0 z" id="svg_23"/>
            <path d="M165.73824757194518,164.32751599121093 h0 z" class="B" id="svg_24"/>
        </g>
        <path d="M165.73824757194518,164.32751599121093 h0 z" fill="url(#k8yoo5jlhp)" id="svg_25"/>
        <path d="M18.806447571945192,123.51951599121094 h13.1 q1.6,0 3.2,0 q1.7000000000000002,0 2.4,0.7000000000000003 q0.6000000000000003,0.5 0.7000000000000003,1.5 q0.1,0.9 0.30000000000000016,1.8 q0.2,1.6 0.4,3.3 q0.30000000000000016,1.6 0.5,3.3 q1.1,6.3 1.8,12.8 q0.8,6.5 1.9,12.9 q0.4,2 0.6000000000000003,4.1 q0.2,2.1 0.6000000000000003,4.1 q0.1,0.5 0.2,1 q0.1,0.5 0.5,0.8 q0.2,0.1 0.30000000000000016,0.2 q0.2,0.1 0.5,-0.1 q0.8,-0.2 1.3,-1.2 q0.5,-1 1,-1.8 q1.2,-2.3 2.3,-4.5 q1.1,-2.3 2.4,-4.6 q3.2,-6.1 6.4,-12.2 q3.3,-6.2 6.5,-12.4 q0.8,-1.6 1.6,-3.1 q0.9,-1.6 1.7000000000000002,-3.2 q0.4,-0.8 0.9,-1.6 q0.5,-0.8 1.4,-1.3 q0.7000000000000003,-0.5 1.6,-0.5 q1,0 2,0 h13.4 q0.9,0 1.8,0 q1,0 1.4,0.4 q1,0.6000000000000003 0.6000000000000003,2.3 q-0.30000000000000016,1.6 -0.6000000000000003,3.3 l-3,15 l-7.5,37.2 l-1.7000000000000002,8.7 q-0.2,1.1 -0.5,2.2 q-0.30000000000000016,1 -1,1.5 q-0.7000000000000003,0.5 -1.6,0.6000000000000003 q-0.9,0 -2,0 h-7.5 q-0.7000000000000003,-0.2 -1.3,-0.30000000000000016 q-0.5,-0.1 -0.8,-0.7000000000000003 q-0.30000000000000016,-0.5 -0.2,-1.3 q0.2,-0.8 0.4,-1.7000000000000002 l1,-5.1 l5.2,-25.7 q0.2,-1.4 0.4,-2.6 q0.30000000000000016,-1.3 0.5,-2.6 q0.2,-0.8 0.4,-1.6 q0.2,-0.9 0.2,-1.7000000000000002 q-0.1,-0.7000000000000003 0,-1.5 q0.2,-0.8 -0.30000000000000016,-1 q-0.30000000000000016,-0.1 -0.5,0.1 q-0.2,0.2 -0.30000000000000016,0.30000000000000016 q-0.5,0.4 -0.9,1 q-0.30000000000000016,0.5 -0.6000000000000003,1 q-0.9,1.5 -1.8,3.1 q-0.8,1.6 -1.8,3.2 q-0.30000000000000016,0.6000000000000003 -0.6000000000000003,1.2 q-0.2,0.6000000000000003 -0.6000000000000003,1.2 q-0.8,1.3 -1.5,2.6 q-0.6000000000000003,1.3 -1.4,2.6 q-0.2,0.30000000000000016 -0.30000000000000016,0.7000000000000003 q-0.1,0.30000000000000016 -0.30000000000000016,0.6000000000000003 q-0.6000000000000003,0.9 -1.1,1.9 q-0.4,1 -1.1,2 q-0.6000000000000003,0.9 -1.1,1.9 q-0.4,1 -1,2 q-1.8,2.9 -3.3,5.9 q-1.5,2.9 -3.1,5.8 q-0.30000000000000016,0.30000000000000016 -0.4,0.6000000000000003 q0,0.30000000000000016 -0.30000000000000016,0.6000000000000003 q-0.7000000000000003,1.1 -1.3,2.3 q-0.5,1.1 -1.2,2.2 q-0.4,0.7000000000000003 -0.8,1.3 q-0.4,0.6000000000000003 -0.9,1 q-0.6000000000000003,0.4 -1.1,0.5 q-0.5,0 -1.3,0.2 h-2.3 q-0.7000000000000003,0 -1.7000000000000002,0.1 q-0.9,0 -1.9,0 q-0.9,0 -1.7000000000000002,-0.1 q-0.8,-0.1 -1.1,-0.4 q-0.7000000000000003,-0.5 -0.9,-1.1 q-0.1,-0.7000000000000003 -0.4,-1.6 q-0.2,-1.2 -0.30000000000000016,-2.4 q-0.1,-1.3 -0.4,-2.5 l-0.1,-0.9 q-0.30000000000000016,-1.2 -0.4,-2.5 q-0.1,-1.4 -0.4,-2.6 q0,-0.30000000000000016 0,-0.5 q0,-0.30000000000000016 -0.1,-0.6000000000000003 q-0.30000000000000016,-0.9 -0.4,-1.9 q-0.1,-1 -0.30000000000000016,-2 q0,-0.2 0,-0.5 q0,-0.30000000000000016 -0.1,-0.5 q-0.2,-1 -0.30000000000000016,-2 q0,-1 -0.30000000000000016,-2 q-0.4,-2 -0.7000000000000003,-4.2 q-0.2,-2.2 -0.6000000000000003,-4.3 q-0.4,-2.5 -0.7000000000000003,-5.1 q-0.2,-2.6 -0.9,-5 q-0.2,-1.4 -0.6000000000000003,-2.3 q-0.2,-0.2 -0.4,-0.30000000000000016 q-0.1,-0.2 -0.4,0 q-0.6000000000000003,0.30000000000000016 -0.8,1 q-0.1,0.7000000000000003 -0.4,1.4 q-0.4,0.7000000000000003 -0.5,1.5 q-0.1,0.7000000000000003 -0.2,1.5 q-0.2,1.1 -0.5,2.2 q-0.2,1.1 -0.5,2.2 l-5.3,26.6 l-1,4.9 q-0.2,0.8 -0.4,1.6 q-0.1,0.8 -0.6000000000000003,1.3 q-0.5,0.7000000000000003 -1.7000000000000002,0.9 q-0.7000000000000003,0.2 -1.5,0.2 q-0.8,-0.1 -1.6,-0.1 h-5.2 q-1.1,0 -2,0 q-0.9,-0.1 -1.4,-0.6000000000000003 q-0.5,-0.5 -0.4,-1.5 q0.2,-1.1 0.4,-2.2 l1.7000000000000002,-8.8 l7.5,-37.2 l2.8,-14 q0.1,-0.6000000000000003 0.2,-1.4 q0.2,-0.9 0.4,-1.7000000000000002 q0.2,-0.8 0.4,-1.5 q0.30000000000000016,-0.8 0.5,-1.2 q0.6000000000000003,-0.7000000000000003 1.8,-1 q0.30000000000000016,-0.1 0.4,0 q0.2,0 0.5,-0.1 zm119.525,67.3 q0,1.1 -0.2,2.2 q-0.2,1.1 -1.3,1.5 q-0.7000000000000003,0.30000000000000016 -1.5,0.30000000000000016 q-0.8,0 -1.6,0 h-5.4 q-0.9,0 -1.8,0 q-0.8,-0.1 -1.2,-0.5 q-0.6000000000000003,-0.4 -0.8,-1.1 q-0.2,-0.8 -0.7000000000000003,-1.3 q-0.2,-0.2 -0.5,-0.30000000000000016 q-0.2,-0.2 -0.7000000000000003,-0.1 q-0.6000000000000003,0.2 -1.1,0.5 q-0.5,0.30000000000000016 -1,0.5 q-0.6000000000000003,0.4 -1.3,0.7000000000000003 q-0.6000000000000003,0.30000000000000016 -1.3,0.6000000000000003 q-1.4,0.6000000000000003 -2.9,1 q-1.5,0.30000000000000016 -3,0.7000000000000003 q-0.8,0.2 -1.5,0.2 q-0.6000000000000003,0.1 -1.3,0.2 q-0.30000000000000016,0 -0.6000000000000003,0 q-0.30000000000000016,0.1 -0.6000000000000003,0.1 h-1.1 q-1.1,0.2 -2,0 h-0.9 q-0.7000000000000003,-0.2 -1.4,-0.2 q-0.6000000000000003,0.1 -1.2,-0.1 q-0.9,-0.2 -1.8,-0.4 q-0.9,-0.1 -1.6,-0.5 q-2.7,-1.1 -4.4,-2.8 q-1.7000000000000002,-1.8 -2.3,-4.7 q-0.2,-0.7000000000000003 -0.30000000000000016,-1.5 q0,-0.8 -0.1,-1.7000000000000002 q-0.1,-0.5 0,-1 q0.2,-0.5 0.2,-1 q0,-0.30000000000000016 0.1,-1.2 q0.2,-1 0.4,-1.4 q0.4,-1 0.5,-1.7000000000000002 q0.5,-1.1 1,-2.2 q0.6000000000000003,-1.2 1.3,-2.1 q2.2,-2.9 4.7,-4.4 q2.5,-1.5 6.2,-2.6 q1.4,-0.5 2.8,-0.7000000000000003 q1.4,-0.2 2.9,-0.5 q0.8,-0.2 1.7000000000000002,-0.2 q1,-0.1 1.9,-0.30000000000000016 q0.7000000000000003,-0.2 1.4,-0.1 q0.7000000000000003,0 1.6,-0.2 q0.7000000000000003,-0.2 1.4,-0.2 q0.7000000000000003,0 1.5,-0.2 q2.2,-0.5 4,-0.8 q1.9,-0.4 3.6,-1.8 q1,-0.9 1.6,-2 q0.1,-0.30000000000000016 0.1,-0.5 q0,-0.2 0.1,-0.4 q0.2,-0.2 0.2,-0.6000000000000003 q0.1,-0.4 0.2,-0.6000000000000003 q0,-0.4 0,-0.8 q0,-0.4 0,-0.7000000000000003 q-0.4,-3 -3.4,-4.1 q-0.8,-0.30000000000000016 -2.1,-0.4 q-1.2,-0.2 -2.5,-0.1 q-1.3,0 -2.6,0.2 q-1.2,0.2 -2.1,0.5 q-0.7000000000000003,0.2 -1.3,0.6000000000000003 q-0.6000000000000003,0.30000000000000016 -1.2,0.7000000000000003 q-0.6000000000000003,0.4 -1.3,1.1 q-0.7000000000000003,0.7000000000000003 -1,1.3 q-0.7000000000000003,1 -1.2,1.9 q-0.5,0.9 -1.7000000000000002,1.2 q-0.8,0.2 -1.7000000000000002,0.2 q-0.9,0 -1.8,0 h-3.8 q-0.5,0 -1.1,0.1 q-0.5,0 -0.8,-0.1 h-0.9 q-0.2,-0.1 -0.5,-0.1 q-0.30000000000000016,0 -0.5,-0.2 q-0.7000000000000003,-0.2 -0.8,-1.3 q0,-0.5 0.2,-1 q0.2,-0.5 0.4,-0.9 q0.5,-1.1 1,-2 q0.6000000000000003,-1 1.2,-1.8 q0.4,-0.5 0.8,-1 q0.4,-0.5 0.8,-1 q1,-1.1 2.4,-2.1 q0.30000000000000016,-0.1 0.7000000000000003,-0.5 q0.6000000000000003,-0.4 1,-0.7000000000000003 q0.5,-0.30000000000000016 1.1,-0.6000000000000003 q1.9,-1.1 3.9,-1.7000000000000002 q2.1,-0.7000000000000003 4.2,-1.3 q1.3,-0.30000000000000016 2.6,-0.4 q1.3,-0.1 2.7,-0.4 q0.4,-0.1 1.2,0 q0.8,0.1 1.1,-0.1 q4.1,-0.1 7.7,0.30000000000000016 q3.7,0.4 6.5,1.5 q2.9,1.1 4.7,3 q1.9,1.8 2.5,4.7 q0.30000000000000016,1.7000000000000002 0,3.9 q-0.30000000000000016,2.2 -0.8,4.5 l-4.5,22.3 q-0.30000000000000016,1.9 -0.7000000000000003,3.9 q-0.4,1.9 -0.30000000000000016,3.5 q0,0.30000000000000016 -0.1,0.7000000000000003 q0,0.30000000000000016 0,0.6000000000000003 zm-11.6,-15.4 q0.2,-0.5 0.30000000000000016,-1.1 q0.1,-0.7000000000000003 0.1,-1.2 q0,-0.6000000000000003 0.1,-1.1 q0.1,-0.5 -0.30000000000000016,-0.8 q-0.4,-0.4 -1.4,-0.4 q-0.4,0.1 -0.7000000000000003,0.2 q-0.30000000000000016,0 -0.8,0.1 q-0.7000000000000003,0.2 -1.5,0.30000000000000016 q-0.8,0.1 -1.7000000000000002,0.30000000000000016 q-0.30000000000000016,0.1 -0.9,0.1 q-1.4,0.30000000000000016 -2.7,0.4 q-1.3,0.1 -2.6,0.5 q-0.8,0.2 -1.6,0.4 q-0.7000000000000003,0.1 -1.4,0.4 q-2.3,0.9 -4.1,2.7 q-1.8,1.8 -2.1,5 q-0.1,1.7000000000000002 0.6000000000000003,2.8 q0.4,1.1 1.7000000000000002,1.8 q1.3,0.6000000000000003 2.9,0.9 q1.6,0.30000000000000016 3.4,0.2 q1.9,-0.2 3.6,-0.7000000000000003 q2.8,-0.8 4.6,-2.5 q1.9,-1.8 3.2,-4.4 q0.30000000000000016,-0.7000000000000003 0.5,-1.4 q0.2,-0.8 0.6000000000000003,-1.6 l0.2,-0.9 zm127.575,-6.9 q0,0.8 -0.4,1.8 q-0.4,1 -1,1.3 q-0.5,0.4 -1.5,0.6000000000000003 q-1,0.1 -2.2,0.2 q-1.1,0 -2.3,0 q-1.1,-0.1 -2,-0.1 h-24.4 q-0.7000000000000003,0 -1.4,0 q-0.6000000000000003,0 -1.1,0.2 q-0.9,0.4 -1.2,0.8 q-0.2,0.2 -0.6000000000000003,0.8 q-0.30000000000000016,0.5 -0.30000000000000016,1 q0.1,0.6000000000000003 0,1.2 q0,0.5 0.1,1.1 q0.30000000000000016,2.4 1.1,4 q0.9,1.5 2.6,2.7 q0.7000000000000003,0.5 1.5,0.7000000000000003 q0.9,0.1 1.7000000000000002,0.4 q0.8,0.2 2.1,0.30000000000000016 q1.4,0.1 2.5,-0.1 h0.9 q1,-0.2 1.9,-0.4 q0.9,-0.30000000000000016 1.8,-0.6000000000000003 q1.1,-0.5 2.5,-1.3 q1.4,-0.8 2.2,-1.6 q0.6000000000000003,-0.7000000000000003 1.3,-1.3 q0.7000000000000003,-0.7000000000000003 1.5,-1 q1.1,-0.5 2.6,-0.4 q1.6,0 2.9,0 q0.6000000000000003,0 1.2,0 q0.7000000000000003,-0.1 1.2,0.1 h1 q0.9,0.2 1.3,0.5 q0.30000000000000016,0.2 0.2,0.9 q0,0.7000000000000003 -0.30000000000000016,1.2 q-0.8,1.4 -1.7000000000000002,2.5 q-0.8,1.1 -1.8,2.2 q-2.8,3.3 -6,5.3 q-3.2,2 -7.7,3.4 q-1.2,0.4 -2.3,0.5 q-1.1,0.1 -2.4,0.4 q-0.4,0.1 -0.9,0 q-0.4,0 -0.8,0.1 h-1.1 q-0.6000000000000003,0.2 -1.2,0.1 q-0.6000000000000003,0 -1.1,-0.1 q-0.8,-0.1 -1.4,0 q-0.6000000000000003,0.1 -1.3,-0.1 q-0.5,-0.2 -1.1,-0.2 q-0.6000000000000003,0 -1,-0.2 q-1.1,-0.2 -2.2,-0.5 q-1,-0.2 -1.8,-0.7000000000000003 q-1,-0.4 -1.9,-0.7000000000000003 q-0.9,-0.4 -1.6,-0.9 q-2.8,-2 -4.8,-4.6 q-1.9,-2.7 -2.8,-6.2 q-0.30000000000000016,-1.1 -0.4,-2.2 q0,-1.2 -0.30000000000000016,-2.4 q0,-0.4 0,-0.7000000000000003 q0.1,-0.4 0.1,-0.8 q-0.1,-1.2 0,-2.6 q0.2,-1.4 0.4,-2.8 q0.1,-0.5 0.1,-1.1 q0.1,-0.6000000000000003 0.30000000000000016,-1.1 l0.30000000000000016,-1.2 l0.8,-2.4 q0.7000000000000003,-1.7000000000000002 1.3,-3.3 q0.6000000000000003,-1.6 1.5,-3 q6.4,-10.4 17.6,-14.7 q1.5,-0.6000000000000003 3,-0.8 q1.5,-0.30000000000000016 3.2,-0.7000000000000003 q0.8,-0.1 1.5,-0.1 q0.7000000000000003,0 1.5,-0.1 q5.1,-0.1 8.5,1.2 q3.4,1.2 5.9,3.2 q0.8,0.6000000000000003 1.5,1.4 q0.8,0.7000000000000003 1.3,1.5 q0.2,0.5 0.7000000000000003,0.8 q0.6000000000000003,1.1 1,2.3 q0.5,1.1 1.1,2.3 q0.30000000000000016,0.9 0.4,1.9 q0.2,0.9 0.4,2 q0.2,1.3 0.2,2.7 q0.1,1.4 0.2,2.8 q0,0.8 -0.30000000000000016,1.8 q-0.2,0.9 -0.1,1.7000000000000002 l-0.2,1.1 zm-13.9,-5.9 q0.9,-1 0.6000000000000003,-2.4 q-0.2,-1.5 -0.30000000000000016,-2.2 q-0.9,-2.7 -2.9,-4.1 q-2,-1.5 -6.1,-1.6 q-0.30000000000000016,0.2 -0.7000000000000003,0.1 q-0.4,-0.1 -0.7000000000000003,0 q-0.6000000000000003,0.2 -1.2,0.30000000000000016 q-0.6000000000000003,0 -1.1,0.2 q-4.7,1.4 -7.6,5.5 q-0.30000000000000016,0.4 -0.7000000000000003,1.1 q-0.4,0.6000000000000003 -0.6000000000000003,1.3 q-0.2,0.6000000000000003 -0.2,1.2 q0,0.6000000000000003 0.5,1 q0.7000000000000003,0.5 2.1,0.5 q1.4,0 2.7,0 h11.1 q1.4,0 2.9,0 q1.6,-0.1 2.2,-0.9 zm57.022,-20.7 q6,-0.2 9.6,1.7000000000000002 q3.7,1.9 5.2,5.6 q0.5,1.1 0.6000000000000003,2.4 q0.2,1.2 0.30000000000000016,2.5 q0.1,0.8 0,1.5 q-0.1,0.7000000000000003 0,1.4 q-0.2,0.6000000000000003 -0.1,0.8 q-0.1,1.4 -0.4,2.9 q-0.30000000000000016,1.5 -0.6000000000000003,2.9 l-1.7000000000000002,8.9 l-3.3,16.2 q-0.4,1.9 -0.8,3.7 q-0.4,1.7000000000000002 -1.9,2.2 q-0.6000000000000003,0.2 -1.4,0.2 q-0.8,0 -1.6,0 h-5.4 q-1.2,0 -2.1,-0.1 q-0.9,-0.2 -1.3,-0.9 q-0.30000000000000016,-0.6000000000000003 -0.2,-1.5 q0.2,-1 0.4,-2.1 l1.4,-7 l3,-14.9 q0.7000000000000003,-3.7 1,-6.8 q0.4,-3.2 -0.7000000000000003,-5.4 q-1,-2 -3.5,-2.8 q-0.5,-0.2 -1.1,-0.2 q-0.5,0 -1,-0.2 q-0.5,-0.1 -1.3,0 q-0.7000000000000003,0 -1.1,0.1 q-0.5,0.1 -0.8,0.1 q-0.30000000000000016,0 -0.6000000000000003,0.1 q-2.4,0.6000000000000003 -4,1.6 q-3.7,2.3 -5.2,6.7 q-1.4,4.4 -2.5,9.9 l-2.5,12.5 l-1.2,6.1 q-0.2,0.9 -0.4,1.8 q-0.2,0.9 -0.6000000000000003,1.5 q-0.7000000000000003,1.1 -1.9,1.3 q-1.1,0.2 -2.7,0.2 h-5 q-1.1,0 -2.2,-0.1 q-1.1,-0.1 -1.4,-0.7000000000000003 q-0.6000000000000003,-0.9 -0.2,-2.6 q0.4,-1.7000000000000002 0.7000000000000003,-3.2 l2.7,-13.6 l4.4,-22 l1.1,-5.1 q0.2,-1.1 0.4,-2 q0.2,-0.9 0.9,-1.5 q0.2,-0.30000000000000016 0.7000000000000003,-0.4 q0.5,-0.2 1,-0.30000000000000016 h0.5 q0.5,-0.1 1,-0.1 q0.6000000000000003,0 1.1,0 h4.2 q0.8,0 1.5,0.1 q0.8,0 1.4,0.2 q0.6000000000000003,0.30000000000000016 0.7000000000000003,0.9 q0.2,0.6000000000000003 0.2,1.4 q0,0.4 -0.1,0.7000000000000003 q-0.1,0.30000000000000016 0,0.6000000000000003 q0.1,0.5 0.2,0.6000000000000003 q0.2,0.1 0.5,0.30000000000000016 q1,0.1 1.9,-0.7000000000000003 q0.9,-0.9 1.8,-1.4 q3.1,-2 6.6,-3.2 q1,-0.30000000000000016 1.9,-0.4 q1,-0.1 2.2,-0.30000000000000016 q0.30000000000000016,-0.1 0.9,0 q0.6000000000000003,0 0.8,-0.1 zM322.1897475719452,141.84091599121095 q0.1,0.08000000000000004 0.1,0.3400000000000003 q0,0.26 -0.1,0.48000000000000015 l-0.02000000000000001,0.1600000000000001 q-0.08000000000000004,0.18000000000000008 -0.18000000000000008,0.30000000000000016 q-0.08000000000000004,0.1 -0.26,0.1600000000000001 q-0.18000000000000008,0.04000000000000002 -0.5,0.04000000000000002 q-0.3200000000000002,-0.02000000000000001 -0.54,-0.02000000000000001 h-0.30000000000000016 q-0.1,0.04000000000000002 -0.18000000000000008,0.02000000000000001 q-0.08000000000000004,-0.02000000000000001 -0.1600000000000001,0.02000000000000001 q-0.22000000000000008,0.08000000000000004 -0.38000000000000017,0.38000000000000017 q-0.06000000000000003,0.1 -0.08000000000000004,0.24000000000000007 q-0.02000000000000001,0.14 -0.04000000000000002,0.28 l-0.9600000000000003,4.72 q-0.02000000000000001,0.1 -0.02000000000000001,0.18000000000000008 q0,0.08000000000000004 -0.04000000000000002,0.1600000000000001 l-0.04000000000000002,0.1600000000000001 q-0.02000000000000001,0.06000000000000003 -0.04000000000000002,0.12000000000000002 q0,0.06000000000000003 -0.06000000000000003,0.1 q-0.08000000000000004,0.1600000000000001 -0.26,0.22000000000000008 q-0.1,0.04000000000000002 -0.24000000000000007,0.04000000000000002 q-0.12000000000000002,0 -0.28,0 q-0.28,0 -0.6200000000000003,0 q-0.3400000000000003,0 -0.46,-0.1600000000000001 q-0.06000000000000003,-0.12000000000000002 -0.04000000000000002,-0.28 q0.04000000000000002,-0.1600000000000001 0.08000000000000004,-0.36000000000000015 l0.9400000000000003,-4.72 q0.02000000000000001,-0.1 0.04000000000000002,-0.2 q0.04000000000000002,-0.1 0.02000000000000001,-0.18000000000000008 l0.04000000000000002,-0.28 q0.02000000000000001,-0.3200000000000002 -0.2,-0.4 q-0.18000000000000008,-0.1 -0.54,-0.08000000000000004 q-0.3400000000000003,0.02000000000000001 -0.6000000000000003,0.02000000000000001 q-0.1,0 -0.2,0.02000000000000001 q-0.08000000000000004,0 -0.14,-0.02000000000000001 q-0.08000000000000004,-0.04000000000000002 -0.14,-0.02000000000000001 q-0.06000000000000003,0 -0.12000000000000002,-0.02000000000000001 q-0.2,-0.1 -0.18000000000000008,-0.3200000000000002 q0.02000000000000001,-0.22000000000000008 0.08000000000000004,-0.52 q0.02000000000000001,-0.12000000000000002 0.04000000000000002,-0.22000000000000008 q0.04000000000000002,-0.1 0.1,-0.2 q0.06000000000000003,-0.1 0.1600000000000001,-0.14 q0.1,-0.06000000000000003 0.2,-0.1 q0.06000000000000003,-0.02000000000000001 0.08000000000000004,0 q0.04000000000000002,0 0.1,-0.02000000000000001 h5.34 q0.18000000000000008,0 0.3400000000000003,0.02000000000000001 q0.1600000000000001,0 0.26,0.08000000000000004 zm10.64,0.04000000000000002 q0.08000000000000004,0.14 0.04000000000000002,0.3200000000000002 q-0.02000000000000001,0.18000000000000008 -0.06000000000000003,0.4 l-1.3,6.5 q-0.04000000000000002,0.22000000000000008 -0.1,0.4 q-0.04000000000000002,0.1600000000000001 -0.14,0.28 q-0.14,0.1600000000000001 -0.44000000000000017,0.1600000000000001 q-0.28,0 -0.56,0 q-0.12000000000000002,0 -0.26,0.02000000000000001 q-0.12000000000000002,0 -0.2,-0.04000000000000002 q-0.18000000000000008,-0.06000000000000003 -0.22000000000000008,-0.18000000000000008 q-0.02000000000000001,-0.12000000000000002 -0.02000000000000001,-0.30000000000000016 l0.06000000000000003,-0.3400000000000003 q0,-0.06000000000000003 0.02000000000000001,-0.14 q0.02000000000000001,-0.1 0.04000000000000002,-0.18000000000000008 l0.52,-2.54 q0.04000000000000002,-0.24000000000000007 0.08000000000000004,-0.48000000000000015 q0.06000000000000003,-0.24000000000000007 0.06000000000000003,-0.44000000000000017 q-0.02000000000000001,-0.1 -0.02000000000000001,-0.1600000000000001 q0,-0.08000000000000004 -0.06000000000000003,-0.12000000000000002 q-0.02000000000000001,-0.02000000000000001 -0.06000000000000003,-0.02000000000000001 q-0.06000000000000003,0.04000000000000002 -0.14,0.08000000000000004 q-0.2,0.24000000000000007 -0.36000000000000015,0.54 q-0.1600000000000001,0.30000000000000016 -0.3400000000000003,0.5800000000000003 q-0.36000000000000015,0.6200000000000003 -0.7000000000000003,1.26 q-0.3400000000000003,0.6200000000000003 -0.7000000000000003,1.22 q-0.1600000000000001,0.28 -0.3400000000000003,0.6400000000000003 q-0.18000000000000008,0.3400000000000003 -0.42000000000000015,0.5 q-0.12000000000000002,0.08000000000000004 -0.28,0.1 q-0.1600000000000001,0 -0.3400000000000003,0 h-0.30000000000000016 q-0.1,-0.04000000000000002 -0.18000000000000008,-0.06000000000000003 q-0.08000000000000004,-0.04000000000000002 -0.14,-0.1 q-0.06020000000000003,-0.06000000000000003 -0.08000000000000004,-0.1600000000000001 q-0.02000000000000001,-0.1 -0.04000000000000002,-0.2 q-0.06000000000000003,-0.18000000000000008 -0.08000000000000004,-0.36000000000000015 q-0.02000000000000001,-0.2 -0.06000000000000003,-0.4 q-0.12000000000000002,-0.5800000000000003 -0.2,-1.18 q-0.08000000000000004,-0.6200000000000003 -0.2,-1.2 q-0.06000000000000003,-0.3400000000000003 -0.12000000000000002,-0.6800000000000006 q-0.04000000000000002,-0.3400000000000003 -0.22000000000000008,-0.5800000000000003 q-0.04000000000000002,0 -0.06000000000000003,0.02000000000000001 q-0.02000000000000001,0 -0.04000000000000002,0 q-0.1,0.08000000000000004 -0.14,0.18000000000000008 q-0.06000000000000003,0.1 -0.08000000000000004,0.2 q0,0.08000000000000004 -0.04000000000000002,0.18000000000000008 l-0.06000000000000003,0.3400000000000003 q-0.04000000000000002,0.08000000000000004 -0.06000000000000003,0.1600000000000001 q-0.02000000000000001,0.08000000000000004 -0.02000000000000001,0.14 l-0.48000000000000015,2.3200000000000003 q-0.04000000000000002,0.26 -0.12000000000000002,0.6400000000000003 q-0.06000000000000003,0.36000000000000015 -0.18000000000000008,0.52 q-0.06000000000000003,0.04000000000000002 -0.12000000000000002,0.1 q-0.04000000000000002,0.04000000000000002 -0.1,0.06000000000000003 q-0.1,0.04000000000000002 -0.24000000000000007,0.06000000000000003 q-0.12000000000000002,0 -0.28,0 q-0.26,0 -0.52,0 q-0.26,0 -0.4,-0.12000000000000002 q-0.1,-0.08000000000000004 -0.1,-0.26 q0.02000000000000001,-0.18000000000000008 0.06000000000000003,-0.4 l1.32,-6.6 q0.04000000000000002,-0.18000000000000008 0.08000000000000004,-0.3400000000000003 q0.06000000000000003,-0.18000000000000008 0.14,-0.28 q0.1,-0.14 0.3200000000000002,-0.18000000000000008 q0.06000000000000003,-0.02000000000000001 0.08000000000000004,0 q0.04000000000000002,0 0.1,-0.02000000000000001 h1.3198 q0.22000000000000008,0 0.42000000000000015,0 q0.2,0 0.30000000000000016,0.1 q0.1600000000000001,0.12000000000000002 0.18000000000000008,0.38000000000000017 q0.04000000000000002,0.26 0.1,0.48000000000000015 q0.1,0.56 0.2,1.1400000000000001 q0.1,0.56 0.2,1.1400000000000001 q0.08000000000000004,0.30000000000000016 0.12000000000000002,0.6200000000000003 q0.06000000000000003,0.3200000000000002 0.12000000000000002,0.6200000000000003 q0.04000000000000002,0.12000000000000002 0.06000000000000003,0.26 q0.04000000000000002,0.12000000000000002 0.1600000000000001,0.1600000000000001 q0.1,0.04000000000000002 0.18000000000000008,-0.04000000000000002 q0.1,-0.08000000000000004 0.14,-0.14 q0.2,-0.22000000000000008 0.3200000000000002,-0.46 q0.14,-0.26 0.28,-0.5 q0.42000000000000015,-0.6600000000000005 0.78,-1.34 q0.38000000000000017,-0.7000000000000003 0.8,-1.36 q0.1600000000000001,-0.28 0.3200000000000002,-0.5800000000000003 q0.18000000000000008,-0.3200000000000002 0.48000000000000015,-0.44000000000000017 q0.14,-0.04000000000000002 0.28,-0.04000000000000002 q0.1600000000000001,0 0.3200000000000002,0 h0.8800000000000003 q0.12000000000000002,0 0.24000000000000007,0 q0.12000000000000002,-0.02000000000000001 0.22000000000000008,0 h0.1 q0.08000000000000004,0.04000000000000002 0.1600000000000001,0.06000000000000003 q0.1,0.02000000000000001 0.12000000000000002,0.08000000000000004 z" fill="#b6b6b6" id="svg_26"/>
        <path d="M200.5317475719452,141.17611599121093 c-1.2123,0.5 -3.343,2.0855 -5.9417,4.4566 l1.468,4.1337 c1.7200000000000002,-1.8356000000000003 3.4488000000000003,-3.453 5.1385,-4.805 l0.1998000000000001,-0.1605000000000001 c-0.06270000000000005,0.058600000000000034 -0.137,0.10200000000000002 -0.1998000000000001,0.1605000000000001 c-0.5536000000000003,0.4475000000000002 -2.2325,1.9095 -4.8848,4.9235 c2.0994,0.19960000000000008 5.3604,0.24420000000000008 8.0414,0.1766 c1.4218000000000002,-4.2385 0.1743,-6.4553 0.1743,-6.4553 s-1.499,-3.4604 -3.9956,-2.4302 z" fill="url(#J)" id="svg_27"/>
        <g class="C" id="svg_28">
            <use xlink:href="#V" id="svg_29" y="123.01951599121094" x="1.1897475719451904"/>
            <use xlink:href="#V" class="B" id="svg_30" y="123.01951599121094" x="1.1897475719451904"/>
            <use xlink:href="#W" id="svg_31" y="123.01951599121094" x="1.1897475719451904"/>
            <use xlink:href="#W" class="B" id="svg_32" y="123.01951599121094" x="1.1897475719451904"/>
        </g>
        <path d="M188.6060475719452,158.78751599121094 l2.368,-3.1 l2.478,-3.026 l0.1466,-0.1683000000000001 l2.4483,-2.732 l-1.47,-4.1205 l-0.5483,0.5026 l-2.1630000000000003,2.0824 l-2.6017,2.669 l-2.503,2.7376 l-2.157,2.5036 l-0.08200000000000005,0.09640000000000008 l1.8760000000000003,5.6037 l2.2085,-3.0384 z" fill="url(#K)" id="svg_33"/>
        <path d="M172.25014757194518,186.44651599121093 l-1.481,2.7926 c-0.0020000000000000013,0.013300000000000008 -0.01700000000000001,0.02470000000000001 -0.02000000000000001,0.03800000000000001 l-0.2083,0.40330000000000016 l-1.3073000000000001,2.5334 c0.7305,0.47330000000000017 1.218,1.494 1.6462,2.6414 c0.09520000000000009,-1.1114 -0.20400000000000001,-2.2128 -0.9500000000000003,-3.1358 c3.8104,0.7354 7.2708,0.2534 9.3825,-2.3112 l0.5416000000000003,-0.7340000000000003 c-0.9272,0.8673000000000003 -1.9452,1.1518 -3.748,0.7788 l-0.013300000000000008,-0.0020000000000000013 l0.013300000000000008,0.0020000000000000013 c2.843,-0.803 4.353,-1.7610000000000001 5.8127,-3.4857 l1.0543,-1.364 c-2.6884,2.0596 -5.4954,2.3392 -8.273,1.403 l-2.172,-0.07470000000000004 l-0.28,0.515 z" fill="url(#L)" id="svg_34"/>
        <path d="M173.94974757194518,181.80111599121093 l1.9518,-3.415 l1.9495,-3.307 l2.0198,-3.3237 l2.1205,-3.3632 l2.1506,-3.29 l0.7955,-1.1713 l1.3772,-1.9943 c0.019200000000000005,-0.03800000000000001 0.05160000000000004,-0.0738 0.07070000000000004,-0.11170000000000006 l-1.8513000000000002,-5.5865 c-0.04950000000000002,0.06050000000000003 -0.101,0.1343 -0.16380000000000008,0.1930000000000001 l-2.2835,2.8105 l-2.267,2.9756 l-1.8576000000000001,2.5882 l-0.36250000000000016,0.5298 l-2.0705,3.2078 l-1.9308,3.364 l-1.0588,2.041 l-0.79,1.6874000000000002 l-1.6163,3.993 l1.8853,5.6322 l1.4938,-2.696 l0.4373000000000003,-0.7630000000000003 z" fill="url(#M)" id="svg_35"/>
        <path d="M170.0651475719452,179.80751599121095 c-0.5770000000000003,1.6237000000000006 -1.0615,3.26 -1.4263000000000001,4.9158 c-0.007800000000000007,0.05300000000000003 -0.03080000000000001,0.11750000000000005 -0.03860000000000002,0.1706 c-0.6282000000000003,-1.448 -2.6670000000000007,-3.076 -2.6557000000000004,-3.0607 c1.2538,2.543 2.1266,5.0032 1.97,7.2716 c-0.8748000000000004,0.04800000000000002 -2.0057,-0.37560000000000016 -3.2743,-1.0634000000000001 c1.218,1.494 2.214,2.006 2.6118,2.1594 c-1.299,-0.10930000000000002 -2.77,0.5833 -4.274,1.4066 c2.0965,-0.5195 3.7492,-0.6023000000000003 4.8517,-0.16940000000000016 c-2.572,4.8697 -5.224,10.2835 -7.9263,16.0425 c0.5807000000000003,-0.07750000000000004 0.97,-0.4137 1.2288000000000001,-0.8908000000000005 c0.47840000000000016,-1.0416 3.6934,-7.8914 8.4454,-16.807 l0.4107,-0.7668000000000005 c0.03830000000000002,-0.07570000000000005 0.07460000000000004,-0.13820000000000007 0.11280000000000004,-0.21400000000000008 l1.5590000000000002,-2.8626 l0.36860000000000015,-0.6645000000000003 l0.0020000000000000013,-0.013300000000000008 l-1.8853,-5.632 c-0.03630000000000001,0.06250000000000004 -0.05740000000000002,0.11360000000000005 -0.08040000000000004,0.17800000000000007 z" fill="url(#N)" id="svg_36"/>
        <path d="M186.7560475719452,162.33951599121093 l-0.29380000000000017,0.43140000000000017 l-0.9024,1.3455000000000001 l-1.0093,1.5196 l-0.523,0.79 l-1.5992000000000002,2.4905 l-2.0424,3.2933 l-2.0276,3.3768000000000002 l-1.9956,3.4357 l-1.8336000000000001,3.2560000000000002 c-0.03430000000000003,0.04930000000000003 -0.05720000000000002,0.11370000000000006 -0.09160000000000008,0.1630000000000001 l-1.8703,3.4134 c-0.01700000000000001,0.02460000000000001 -0.03430000000000003,0.04920000000000002 -0.03820000000000001,0.07570000000000005 l2.172,0.07470000000000004 c-0.03780000000000002,-0.01900000000000001 -0.07770000000000005,-0.025000000000000015 -0.1287,-0.046000000000000034 c2.6083,0.05730000000000003 6.2865,-1.3554 8.823,-3.3966000000000003 c1.1684,-0.9403 2.2712,-2.08 3.3406000000000002,-3.4553000000000003 c0.8007000000000003,-1.0214 1.5658,-2.17 2.339,-3.4667 l1.9927000000000001,-3.6937 c-0.6287000000000005,0.21950000000000008 -1.3388,0.3460000000000003 -2.1054,0.3960000000000003 l-0.40980000000000016,0.02120000000000001 l-0.4213000000000002,0.006000000000000006 c2.5235,-0.5653 4.2823,-2.1105 5.7,-4.1275 c-0.6860000000000006,0.33320000000000016 -1.7898,0.7407000000000004 -3.0518,0.8403 c-0.1650000000000001,0.016400000000000015 -0.3416000000000002,0.01760000000000001 -0.518,0.0188 c-0.03980000000000002,-0.005800000000000003 -0.08160000000000005,0.0016000000000000007 -0.13470000000000001,-0.006000000000000006 h0 c0.8735,-0.22440000000000013 1.6335000000000002,-0.506 2.3120000000000003,-0.8800000000000003 c0.14640000000000009,-0.07350000000000002 0.28150000000000014,-0.1620000000000001 0.41650000000000015,-0.2508 c0.20900000000000007,-0.132 0.40700000000000014,-0.2792 0.6050000000000003,-0.42640000000000017 l0.36920000000000014,-0.29840000000000017 c0.2797,-0.24370000000000008 0.5502,-0.5158 0.798,-0.8184 l0.2306,-0.278 l0.29200000000000015,-0.4182 l1.0726,-1.673 l0.3858000000000003,-0.6890000000000006 c0.04020000000000002,-0.09000000000000007 0.09170000000000009,-0.16280000000000008 0.132,-0.2518 l0.31160000000000015,-0.6457000000000006 l0.2625,-0.6800000000000006 c-0.08930000000000005,0.05470000000000003 -0.1920000000000001,0.10740000000000002 -0.30600000000000016,0.14500000000000007 c-0.78,0.31960000000000016 -2.0718,0.5366000000000003 -3.0945,0.5764 l1.9954999999999998,0.0758 l-1.9954999999999998,-0.0758 c-0.013300000000000008,-0.0020000000000000013 -0.02650000000000002,-0.004000000000000003 -0.04180000000000003,0.007400000000000006 c-0.09480000000000006,-0.0003000000000000003 -0.203,-0.0027000000000000014 -0.31300000000000017,0.008300000000000005 c0.01520000000000001,-0.011300000000000008 0.04170000000000002,-0.007400000000000006 0.05700000000000002,-0.0187 l-6.823,-0.2555 c0.005500000000000003,0.05500000000000002 -0.01170000000000001,0.07970000000000005 -0.02700000000000002,0.09000000000000007 z" fill="url(#O)" id="svg_37"/>
        <path d="M196.3117475719452,149.88501599121093 l-2.4106,2.846 c-0.04960000000000003,0.06060000000000004 -0.09700000000000009,0.1078 -0.13340000000000007,0.1703 l-2.4193000000000002,3.0888 l-2.334,3.1556 l-2.2088,3.1333 l6.823,0.2554 c2.0835,-0.6162000000000003 3.0782,-1.2973000000000001 4.101,-2.354 l0.8268000000000003,-0.9226000000000003 c0.8480000000000003,-0.9738 1.6980000000000006,-2.0558 2.4688,-3.1494 l1.9674,-3.0602 l0.8583000000000003,-1.6910000000000007 l0.4867,-1.2844 c-2.6657,0.05630000000000003 -5.9267,0.01170000000000001 -8.026,-0.18800000000000008 z" fill="url(#P)" id="svg_38"/>
        <g class="C" id="svg_39">
            <path d="M188.5751475719452,172.39551599121094 l-0.42100000000000015,0.006000000000000006 l0.42100000000000015,-0.006000000000000006 z" id="svg_40"/>
            <path d="M188.5751475719452,172.39551599121094 l-0.42100000000000015,0.006000000000000006 l0.42100000000000015,-0.006000000000000006 z" class="B" id="svg_41"/>
        </g>
        <path d="M188.5751475719452,172.39551599121094 l-0.42100000000000015,0.006000000000000006 l0.42100000000000015,-0.006000000000000006 z" fill="url(#Q)" id="svg_42"/>
        <g class="C" id="svg_43">
            <use xlink:href="#X" id="svg_44" y="123.01951599121094" x="1.1897475719451904"/>
            <use xlink:href="#X" class="B" id="svg_45" y="123.01951599121094" x="1.1897475719451904"/>
        </g>
        <use xlink:href="#X" fill="url(#R)" id="svg_46" y="123.01951599121094" x="1.1897475719451904"/>
        <g class="C" id="svg_47">
            <path d="M190.1547475719452,169.11571599121095 h0 z" id="svg_48"/>
            <path d="M190.1547475719452,169.11571599121095 h0 z" class="B" id="svg_49"/>
        </g>
        <path d="M190.1547475719452,169.11571599121095 h0 z" fill="url(#k8yoo5jlhf)" id="svg_50"/>
    </g></g></svg>