<svg xmlns="http://www.w3.org/2000/svg" xmlns:xlink="http://www.w3.org/1999/xlink" fill="#fff" fill-rule="evenodd" stroke="#000" stroke-linecap="round" stroke-linejoin="round" width="61" height="81"><rect id="backgroundrect" width="100%" height="100%" x="0" y="0" fill="none" stroke="none"/><symbol id="A" overflow="visible"><path d="M32.708 39.7c-.208-.416-.625-.623-.833-1.04-.417-.208-.833-.416-1.25-.416-.625 0-1.042.208-1.458.416s-.625.623-1.042.83l-.625 1.247c-.208.416-.208 1.04-.208 1.662 0 .83 0 1.454.208 1.87.208.623.417 1.04.625 1.247.2.416.625.623 1.042.623.417.208.833.208 1.25.208s.833 0 1.04-.208c.417-.208.625-.416 1.042-.83l.625-1.247c.208-.415.208-1.04.208-1.87 0-.623 0-1.04-.208-1.662l-.417-.83zM30 0C13.333 0 0 5.6 0 11.844v56.104C0 74.182 13.54 80 30 80c16.666 0 30-5.6 30-11.844V12.052C60.206 5.818 46.665 0 30 0zm-8.96 46.96c0 .416-.208.83-.417 1.247s-.417.83-.833 1.04c-.417.416-.833.623-1.25.83s-1.042.416-1.875.624c-.625.208-1.458.208-2.5.208h-1.458c-.417 0-.833 0-1.25-.208-.417 0-.833-.208-1.042-.208-.417 0-.625-.208-.833-.416v-4.364c.208.208.625.416 1.042.624s.625.416 1.04.623.834.208 1.25.416.833.208 1.25.208.625 0 .833-.208c.208 0 .417-.208.417-.208.208 0 .208-.208.208-.416v-.416c0-.208 0-.416-.208-.623S15.208 45.3 15 45.3c-.208-.208-.417-.208-.833-.416s-.625-.208-1.042-.416c-.625-.208-1.25-.623-1.875-1.04-.417-.416-.833-.623-1.25-1.04s-.625-.83-.625-1.247c-.2-.415-.2-1.04-.2-1.454 0-.83.2-1.455.417-2.078.417-.623.833-1.247 1.25-1.663.625-.415 1.25-.83 2.083-1.04s1.667-.416 2.708-.416h1.458c.417 0 .833 0 1.25.208.416 0 .625.208 1.042.208s.625.208.833.208v4.156c-.2-.208-.417-.208-.833-.415-.208-.208-.625-.208-1.042-.416s-.625-.208-1.042-.208h-1.25c-.625 0-1.042 0-1.25.208-.417.208-.417.416-.417.83 0 .208 0 .416.208.416 0 .208.208.208.417.416s.417.208.625.416.625.208 1.042.416c.625.208 1.25.623 1.875.83.625.416 1.04.624 1.458 1.04s.625.83 1.042 1.247c.208.416.417 1.04.417 1.87a1.59 1.59 0 0 0-.417 1.04zm12.3 7.896l-3.54-3.74c-1.042 0-2.083-.415-2.917-.623-.833-.416-1.666-1.04-2.3-1.662a7.48 7.48 0 0 1-1.667-2.494c-.417-1.04-.625-2.078-.625-3.325s.208-2.493.625-3.532 1.042-1.87 1.667-2.7 1.666-1.247 2.5-1.662c1.042-.416 2.083-.623 3.333-.623s2.3.208 3.125.624c1.042.416 1.875 1.04 2.5 1.662s1.25 1.662 1.666 2.493c.417 1.04.625 2.078.625 3.533 0 .83 0 1.87-.416 2.493-.208.83-.625 1.455-1.042 2.078s-.833 1.247-1.458 1.662-1.04.83-1.875 1.247l5.416 4.57h-5.625zM51.248 50.7H40.832v-16h4.8v12.26h5.625v3.74zM30 17.455c-11.875 0-21.457-2.9-21.457-6.442S18.124 4.57 30 4.57 51.458 7.48 51.458 11 41.874 17.455 30 17.455z" fill="#0078d7" stroke="none" id="svg_1"/></symbol><g class="currentLayer" style=""><title>Layer 1</title><use xlink:href="#A" x="0.5" y="0.5" id="svg_2"/></g></svg>